<svg id="Layer_1" data-name="Layer 1" xmlns="http://www.w3.org/2000/svg" viewBox="0 0 571 857"><defs><style>.cls-1{fill:#fefefe;}.cls-2{fill:#21547a;}.cls-3{fill:#eaeaea;}.cls-4{fill:#f1f1f1;}.cls-5{fill:#bebebe;}.cls-6{fill:#dedede;}.cls-7{fill:#cacaca;}.cls-8{fill:#efefef;}.cls-9{fill:#d7d7d7;}.cls-10{fill:#d0d0d0;}.cls-11{fill:#d2d2d2;}.cls-12{fill:#46bae7;}.cls-13{fill:#e2f469;}.cls-14{fill:#7eceed;}.cls-15{fill:#fafcfd;}.cls-16{fill:#51d7fe;}.cls-17{fill:#4bc5f5;}.cls-18{fill:#50d4fe;}.cls-19{fill:#4ecefe;}.cls-20{fill:#49beeb;}.cls-21{fill:#4ec7f6;}.cls-22{fill:#58dffe;}.cls-23{fill:#53dbfe;}.cls-24{fill:#4ccbfc;}.cls-25{fill:#dbed66;}.cls-26{fill:#d8e964;}.cls-27{fill:#e1f368;}.cls-28{fill:#87e5fe;}.cls-29{fill:#4cc7f8;}.cls-30{fill:#67dbfe;}.cls-31{fill:#54d8fd;}.cls-32{fill:#73d5fb;}.cls-33{fill:#e7f96b;}.cls-34{fill:#54ddfd;}.cls-35{fill:#7fe6fe;}.cls-36{fill:#7ae7fd;}.cls-37{fill:#e6f96b;}.cls-38{fill:#93ecfd;}.cls-39{fill:#71e5fd;}.cls-40{fill:#67e2fe;}.cls-41{fill:#68d7fd;}.cls-42{fill:#51d1fd;}.cls-43{fill:#82d9fb;}.cls-44{fill:#5ae2fd;}.cls-45{fill:#85ebfd;}.cls-46{fill:#64e5fd;}.cls-47{fill:#52d6fd;}.cls-48{fill:#59e2fe;}.cls-49{fill:#447798;}.cls-50{fill:#698ba4;}.cls-51{fill:#72e5fd;}.cls-52{fill:#75eafd;}.cls-53{fill:#c8fbfd;}.cls-54{fill:#6ee2fd;}.cls-55{fill:#66e2fe;}.cls-56{fill:#71e7fd;}.cls-57{fill:#5cd5fd;}.cls-58{fill:#75e0fe;}.cls-59{fill:#98f4fe;}.cls-60{fill:#48bce9;}.cls-61{fill:#44b4df;}.cls-62{fill:#55c2ec;}.cls-63{fill:#66cbf3;}.cls-64{fill:#59b9e1;}.cls-65{fill:#72c5e6;}.cls-66{fill:#dced65;}.cls-67{fill:#aabfce;}.cls-68{fill:#d9d8d9;}.cls-69{fill:#49718f;}.cls-70{fill:#416c8b;}.cls-71{fill:#386484;}.cls-72{fill:#3e6a8a;}.cls-73{fill:#477190;}.cls-74{fill:#577992;}.cls-75{fill:#43aad3;}.cls-76{fill:#41a2c8;}.cls-77{fill:#7aafc4;}.cls-78{fill:#ddef66;}.cls-79{fill:#6ddefe;}.cls-80{fill:#72dbfe;}.cls-81{fill:#72d9fd;}.cls-82{fill:#73e0fd;}.cls-83{fill:#8dd7f4;}.cls-84{fill:#6dcdf3;}.cls-85{fill:#4bc8f8;}.cls-86{fill:#fcfefd;}.cls-87{fill:#fdfefd;}.cls-88{fill:#f8fefd;}.cls-89{fill:#8ed5f1;}.cls-90{fill:#79cded;}.cls-91{fill:#72d3f9;}.cls-92{fill:#9ae9fe;}.cls-93{fill:#97e9fe;}.cls-94{fill:#91d3ec;}.cls-95{fill:#80d1f1;}.cls-96{fill:#ceebf7;}.cls-97{fill:#5abbe0;}.cls-98{fill:#6ec0df;}.cls-99{fill:#57a9c9;}</style></defs><path class="cls-1" d="M570.9,234.05V630c-1.35,5.22-4.26,9.67-7.25,14-9.11,13.28-18.42,26.43-27.73,39.58-1.13,1.6-2.2,3.39-4.47,3.65-2.21-1.23-1.78-3.41-1.79-5.31-.1-15.73-7.76-26.23-22-32.23a5.5,5.5,0,0,1-2.85-1.88c-.47-3.31,2.77-4.15,4.13-6.25,1.12-1.43,1.48-3.24,2.33-4.8,1.34-2.63,3.46-4.74,4.95-7.27.79-1.16,1.4-2.43,2.1-3.64,6.71-13.54,16.18-25.91,17.45-41.71.79-3.4,2-6.69,3.11-10,1-3.12,3-5.45,5.57-7.8,3.34-3.09,4.93-7.83,7.25-11.87,5-8.78,11.59-16.7,14.58-26.63a56.09,56.09,0,0,0,2.44-18.72c-.13-3-.83-5.07-4.44-5.33s-6-2.79-7.62-5.82a33.94,33.94,0,0,0-5.21-7.28c-2.25-2.35-4.55-3.86-7.92-2.46-2.53,1-5.08.1-7.27-.82-3.08-1.28-5.68-1.39-8.41.59-2.34,1.68-3.91,1.41-3.15-1.9,1-4.37-.88-7-4.64-8.8-2.24-1.1-4.46-2.25-6.75-3.24-6.33-2.73-7.25-2.44-11.43,3.25a8.94,8.94,0,0,1-.9,1.2c-.81.79-1.65,2.07-2.89,1.22s-.49-2.11-.14-3.21a16,16,0,0,1,1-2.3c1.71-3.31.76-5.36-2.87-6.18-1.7-.65-2.24-2.64-3.88-3.38-1.27-.49-4.32.91-2.75-2.66.26-.59-1.25-.31-1.58-1-.79-1.53.41-2.4,1-3.53,1.16-2.16,1.56-4.36-.67-6.22a31.37,31.37,0,0,1-6-14.35c-.85-2.86.41-6.41-2.8-8.49-2.33-1.46-3.58-4.05-5.82-5.61-.85-.79-1.75-1.51-2.65-2.25-5.69-4.7-12-7.81-19.58-6.41s-14.1.31-19.31-5.76a10.9,10.9,0,0,0-3.25-2.26c-1.69-.91-2.54-2.49-3.51-4.06-4-6.54-8.87-12-17.2-12.76a3.15,3.15,0,0,1-1.7-1,4.42,4.42,0,0,1-1.33-2.6c-.52-4.7-3.74-6.6-7.78-7.83-3.29-1-6.8-1.82-8.82-5-1.56-2.45-1.69-4.45,2.07-4.3a6,6,0,0,0-3.41.52,51.91,51.91,0,0,0-13.95,5.09c-3.86,2.14-8,2-11.25-.66-4-3.22-8-3.34-12.58-2.36-7.84,1.67-7.89,1.54-12.27-5.17a7.29,7.29,0,0,0-6.22-3.53c-3.47-.07-6.08-1.27-7.52-4.95,1.08,3.48-.55,5.42-3.33,6.19-4.23,1.17-7.82,3.49-11.52,5.65-3-1.26-3.48-4.26-4.65-6.73-.83-1.75,0-3.22,1.64-4.18,1.14-.67,2.49-1,3.47-1.94a1.67,1.67,0,0,0,.66-1.75c-.35-1-1.23-1-2.08-.87a4.21,4.21,0,0,0-2.57,1.42c-2.78,3.52-7.19,4.71-10.5,7.45a2.26,2.26,0,0,1-.84.52c-4.51,1.05-9,2.18-13.44,3.45-5.31,1.52-7,2.17-7.9,8.19-.53,2-.11,4.17-.84,6.16-.95,1.1-2.47,1.07-3.58,1.86-2.36,2-3.76,4.86-6.35,6.59-1.73,1.78.52,4.11-.81,5.95-1.65,2-2.79.77-3.78-.68a16.88,16.88,0,0,0-3.55-3.94c-4.36-4.35-8.87-8.25-15.49-8.94-3.11-.32-5.85-.33-8.53,1.36-2,1.24-4.22,1.88-6.3,2.89-9.21,4.48-14.83,3.1-20.39-5-2.91-2.51-5.92-4.9-8.28-8-6.63-7.38-4.26-15.81-2.51-24,1.07-5,1.61-10.08,3.51-15,1.63-4.18-.17-6.78-4.72-9.05-2.35-1.17-3.07-4.18-6.21-4.66-5-.76-9.87-1.13-14.76-.08a23.13,23.13,0,0,1-7.39.77c-3.47-.37-6.88-.9-10.36.3-1.94.66-3.92-.47-5.79-1.09-2.81-.93-3.32-2.93-1.25-4.9,5.31-5.07,4.52-11.88,5.24-18.14.49-4.31-.06-4.44,4.43-4.67,1.56-.08,1.37-1.3,1.44-2,.73-6.77,2.62-12.94,7.79-17.84,1.63-1.54,1.38-3.08-1.37-3.83-8.34-2.28-16.1.9-24,2.4-3.17.6-4.55,3.54-5,6.79-.69,5-2,9.8-6.79,12.68-1,.63-1.43,1.8-1.94,2.84-.84,1.69-2.4,2.78-4.07,2.11-6.19-2.5-11.63,1.05-17.28,2.15-4.16.81-7.64,1.72-11-1.74C89.75,293.57,84.83,295,83,291c-3.4-9.3-10.31-17.1-11.57-27.33a15.85,15.85,0,0,1,.58-7.33,102.13,102.13,0,0,0,3-11.6c.84-4,1.16-8.32,5.55-10.61,2.15-1.13,1.57-3.38,1.44-5.4-.18-2.69-1.83-5.59.82-8,4.44-1,8.87.2,13.32.13,11.41-.18,19.24-6.18,25.5-14.92,1.24-1.74,2-3.83,3.8-5.17,3.29-2.51,6.61-3,9.87,0,2.15,2,4.63,1.77,7,.87,2-.78,3.83-1.22,5.57.9.14.36.41-1,0-.46-.14.21-.28.12-.4-.27-1.79-5.86-1.21-7,4.37-8.41,7.91-2.05,15.95-.37,23.92-.78a5.7,5.7,0,0,1,3.25,1.19c4.27,3,8.51,4.77,13.61,1.63,1.42-.87,3.4,0,4.63,1.18,4.05,3.8,9.65,6.23,8.13,14.06-.51,2.63.59,7.51,4.35,10.79,3.09,2.69,4.76,7.41,7.89,10.68,2.6,2.71,3.84,2.71,5.51-.53a14.26,14.26,0,0,0,.25-13c-3.19-7.11-5.08-14.68-8.14-21.87s-.63-13.7,5.75-18.4c4.41-3.24,8.83-6.41,13.07-9.9,3.93-3.23,9.27-4.9,14.06-7.11.54-.24,2.12,1.14,1.68-1-.81-3.93,2-4.2,5.13-4.17-1.62-1.55-4.08-.39-5.05-2.94,5.56-.82,2-4.72,2.53-7.42a7.6,7.6,0,0,1,4.31-2.35c10.3-2.46,17.18-8.88,21.46-18.37a13.9,13.9,0,0,1,2.51-4.28c3.16-1,5.28-2,3.82-6.39-1-3.08,1-5.76,4.23-7.55,4.41-2.44,9.36-2.61,14-4.17,3.34-2,7.28-2,10.84-3.33,1.38-.49,3.18-1.46,4.17-.26,1.28,1.55-.44,3-1.3,4.31-1.2,1.39-3.84,2.47-2,4.74s3.89,1,5.45-.7c2.7-2.94,6.34-3.16,9.9-3.71,3.57-.12,6.41-2.36,9.83-3.31-1.58-1.23-2.64-2.49-4.4,0-2.15,3-6.24,2.57-8.5-.41-1.88-2.47-4.42-2.59-7-1.67a4.53,4.53,0,0,1-3.82,0c-3.74-2.24-5.79-6.53-9.88-8.47-.42-.2.36-1.1.92-1.49.89-.64,2.31-.38,3-2.18-8.24-3-15.76-1.32-23.06,2.69-.29.15-.51.42-.79.59-1.85,1.13-3.7,4.5-5.65,2.52s1.74-3.66,2.57-5.67c7.64-7.64,16.9-9.93,27.32-8.08,4.1.73,8.29.63,12.37,1.52,5.92,1.28,10.7-3.32,16.41-3.32,1,0,1.09-1.11.57-1.94a3.9,3.9,0,0,0-2.25-1.9c-6.84-1.5-12.18-6.8-19.23-7.65-4.62-.56-8.57-2.74-12.42-5-4.48-2.57-9.08-4.87-13.63-7.28-4-2.11-7.32-4.11-12.31-1.12-4.42,2.64-10.26,1.33-14.1-1.89-5.61-4.7-12.26-5.85-18.82-7-4.8-.85-9.87-.65-14.81-1.41-.49,2.44,3.59,4,.67,6.76-.8.75,1.27,1,2,1.33,2.29,1.1,4.82,2.16,4.67,5.17-.16,3.21-2.89,4.17-5.46,5.07-1.72.6-3.59.67-5.42,1.43-.07,3.27,4.36,5.7,1.89,9.19-1.66,2.35-4.33,2.93-7.12,2.89-5.23-2-10.86-3.48-12.31-10.13a2.82,2.82,0,0,0-2.93-2.27c-10.31.39-19.65-4.25-29.61-5.65-2.81-.4-5.62.21-8.37-.46-1.54-.95-2.62-2.42-4.4-3.16-3.66-1.52-3.9-3.45-.72-5.92a27.63,27.63,0,0,1,8.68-4.79c9.05-2.83,18.56-3.5,27.69-6,.63-.17,1.47-.37,1.92.11,4.33,4.64,8.73,2.16,13.33.46,3.13-1.16,6.63-.87,9.86-.24a69,69,0,0,0,18.31,1c6.54,1.64,13,3.41,19.75,4.46,6.24,1,12.07.4,18.88-1.51-4.09-2.32-8.06-2.71-11.67-4-4-1.54-4-1.54-2.8-3.63,4.92-1.13,9.44,1.11,14.16,1.67,2.55.61,5,1.75,7.75,1.44a5.25,5.25,0,0,1,1.42.21c1.84,1.16,4.12,1,6,2.06,7.18,4.36,15.45,5.92,23.17,8.91,10.16,3.94,20.63,7.06,29.85,9.84a41.57,41.57,0,0,1-7.74-3.87c-1.95-1.31-2.76-2.74.48-3.47,10.11,2.58,19.62,6.81,29.31,10.55,6.33,2.4,12.41,5.49,19.13,6.83,2.16.43,3.84,1.83,5.47,3.28,4.15,3.7,9.49,5.34,14.22,8,4.25,2.62,8.71,4.85,13,7.37q3.71,2.58,7.52,5c12.15,8.26,24.47,16.29,36.05,25.36A37.37,37.37,0,0,1,473,118c2.3,2.57,4.92,3.31,8.4,3,8.17-.74,13.32,3.83,13.7,11.93A8.37,8.37,0,0,0,498.9,140a32.7,32.7,0,0,1,4.34,4.07c6,7.92,13.67,14.31,20.28,21.67,6,7.09,11.74,14.32,17.2,21.8C552.1,200,560.18,214.76,569,229,570,230.58,569.89,232.5,570.9,234.05Z" transform="translate(0 0)"/><path class="cls-1" d="M.1,319V240c1.21-.44,1.95.23,2.61,1.09,2,4.59,5.31,8.33,7.46,12.88,2.4,5.08,3.12,10.45,4.58,15.69.86,3.09-.26,6-1.3,8.72-1.91,4.92-1.86,7.67,2.24,10.48,5.74,3.93,9.43,11,17.36,11.58,8.33,8.3,20.29,9.44,29.9,15.19,3.8,2.27,8.19,2.62,12.3,3.81,2.86.83,5.52-.66,8.09-1.86,1.79-.84,3.26-2.33,5.31-2.66,6.14-.81,11,1.83,15.33,5.81,3.91,3.62,7.57,7.5,11.34,11.27,1.8,1.79,3.75,3.66,6.27,3.9,8.56.83,16.09,5.11,24.31,7a11.38,11.38,0,0,0,6.83-.31c3-1.09,5.7.39,5.25,3.21s.86,3.79,2.41,5.06c4,3.28,6.66,7.79,10.63,11.16,2.46,2.09,3,5.51,2.22,8.79-.57,2.32,0,3.95,2.24,4.86.44.18.93,1.2,1.72-.24,1.53-2.77,2.5-2.78,4.78-.56,1.77,1.72,2.93,4.07,5.38,5.08,3,1.79,6.9,2.9,6.27,7.68,0,.31-.43.83.36.82,4.72-.06,8.27,4.48,13.27,3.36,4.39,2.76,10,3.66,13.15,8.35,1.1,1.62,2.63,1.16,4,.25s.72-2.06-.08-3c-3.07-3.44-1.73-5.6,2-7.19a8.7,8.7,0,0,0,2.9-2.67c3.68-4.19,6.9-4.66,11.23-1.23,2.9,2.3,7,3.84,5.46,9.28-.67,2.3,1.72,4.6,3.52,6.32,5.28,5,6,11.12,6,18.09,0,5.74-2.3,11.85,1.16,17.46.52.84-.16,1.92-.73,2.77a17.21,17.21,0,0,0-3.36,4.91,6.52,6.52,0,0,1-5.48,4.51c-2.7.38-3.71,1.9-4.35,4.57a20.86,20.86,0,0,1-5.35,10.19c-1.83.81-3.86,1-5.62,2-1,.58-2.41,1.08-2.47,2.29-.35,6.64-4.65,11.36-7.76,16.69-1.74,3,1.22,14.2,3.92,16,.44.29.79.61,1.29.34,1.21-.67,2.56-2.41,3.7-.33,1,1.75-.15,3.55-1.14,5.11a7.87,7.87,0,0,1-2.56,2.34,46.42,46.42,0,0,0-4.65,2.91c-5.28,4-6.09,6.67-3.86,12.78.93,2.58,2.72,4.89,1.1,8-.69,1.33,1.34,2.12,2.47,2.63,5.94,2.66,8.88,7.94,12.66,12.87,7.23,9.41,9.64,21.16,16.38,30.68,3,6.86,7.12,13.08,11.14,19.35,1.21,1.89,2.05,3.6,1.6,6-.68,3.56,1.79,5.83,4,8.11,5.72,5.86,13,9.16,20.41,12.07,4.07,2.29,8.54,3.67,12.68,5.85,4.86,2.56,7.54,7.49,12.24,10.1,1.18.66,1.49,2.22,1.5,3.57.09,10.32,0,20.62-3.15,30.6a9.32,9.32,0,0,1-2.3,2.59c-6.51,5.49-6.58,5.49-11.13-1.82a4.68,4.68,0,0,0-1.66-1.81c-16-8.52-28.8-21.43-43.2-32.15A400.39,400.39,0,0,1,217,611.09c-1.62-1.52-3.81-3-2.91-5.84a4.71,4.71,0,0,0,.26-1c-.53,0-.78.43-1.17.64-1.83,1-3.22.08-3.34-1.58-.24-3.24-2.09-4.19-4.88-4.51a7.17,7.17,0,0,1-3.56-1.71c-2.34-1.88-1.47-6.41-6.71-6.36-2.75,0-5.07-4.45-7.8-6.61-5.4-4.27-9.8-9.4-14.18-14.67-3.57-4.28-8.39-7.42-12.48-11.32a479,479,0,0,1-55.68-63.11c-8-10.87-17-21-24-32.53-6.17-10.07-13.36-19.41-19.84-29.24-2.94-4.46-5.4-9.05-9.13-13.1-3.49-3.79-5.25-9.19-8-13.68-3.51-5.78-5.34-12.59-10.37-17.45-2.34-2.26-3.46-5.33-4.78-8.14-5.4-11.51-12-22.36-16.3-34.51C8.82,337.07,3.79,328.3.1,319Z" transform="translate(0 0)"/><path class="cls-2" d="M467.86,115.15,432.07,89.94c-1.08-3.54-2.65-6.63-6.85-7.4.3.92,1.41,1.56.56,2.59a.53.53,0,0,1-.38.14,1.92,1.92,0,0,1-.45-.18L411.79,78A15.34,15.34,0,0,1,410,72.33C408.34,60,393,50.05,378.13,57.48c-1.63.81-3.27,1.61-4.89,2.44L343.82,48.84c-3.88.11-7.51-1.16-11.14-2.21-9.72-2.82-19.74-4.54-29.3-7.94-1.37-3.35,1-3,3-3.11-3.27-.36-6.64-.57-9.74-2,.93,1.5,1.32,2.78-1.15,3-1.44.11-2.43-1-3.71-1.32l-.34.09-.33-.13c-2.43-.32-4.87-.52-7.28-1l-15.12-2.54a10.3,10.3,0,0,1-8.65.82c-4-1.32-8.26-.76-12.35-1.49-4.47-1-9-.39-13.49-.48-14.93.31-29.88.44-44.79.61-16,.18-31.21,3.51-46.59,6.73-3.53.95-6-.89-8.44-3.07-13.91-12.26-33.28-10.1-44.25,4.74-2.86,3.86-3.34,8.68-5.64,12.74-5.46,3.79-11.89,5.37-17.94,7.8C64,61.12,61.3,62,58.72,63,52.18,64.58,46.92,68.8,41,71.63c-6.67,3.2-13,7-19.68,10.25C15.73,84.77,10.38,88.06,5,91.27c-1.5.89-2.78,2.5-4.88,1.81C.1,63.27.14,33.46,0,3.65,0,.83.4,0,3.54,0q282,.15,564,0C570.72,0,571,1,571,3.68q-.13,68.19-.07,136.39c-1.62.73-2.88-.22-4.17-.93-21.29-11.69-40.42,4.37-41.77,20.64-.19,2.25-.33,4.68-1.85,6.63-7.88-6-13.92-13.83-20.45-21.16-.44-1.75.4-3.26.9-4.83,3.14-9.9,1.13-19-5.91-24.56-7.94-6.29-16.59-7.12-25.66-2.37C470.67,114.18,469.43,115.07,467.86,115.15Z" transform="translate(0 0)"/><path class="cls-2" d="M531.37,687.4c13.73-18.77,27.29-37.66,39.53-57.44q0,111.46.1,222.95c0,3.42-.67,4.09-4.09,4.09Q285.5,856.84,4.1,857C.68,857,0,856.33,0,852.91c.18-26.33.1-52.66.1-79a1.73,1.73,0,0,1,1.8-.52c7.17,3.51,14.57,6.62,20.6,12.07-1.61,1.92-1.61,1.92-4.75,1.73a18.14,18.14,0,0,0,6.3,4c3.82,1.4,7.19,3.93,11.34,4.51,10.92,7.21,22.23,13.26,36,12.31,12,3.6,23.57,8.17,35.5,11.82,19.78,6.05,40.11,9.5,60.51,12.57,18.95,2.86,38.07,3.07,57.17,3.67a11.15,11.15,0,0,0,2-.29c12.32-1.26,24.74-1,37-2.78,3.86-.72,7.77-1.19,11.61-2.06,17.38-2.08,34.65-4.72,51.44-9.85,3.38-.6,6.61-1.93,10.08-2,2.06.4,4,1.25,6.26.3,13.42-5.61,27.63-8.94,41.44-14.05-2.3.58-4.74,2.37-5.85-1.3.52-2.39,2.74-2.62,4.45-3.37,3.44-1.51,7.11-2.44,10.42-4.29a8.92,8.92,0,0,1,3.51-1,20.33,20.33,0,0,0,11.46-2.46c6.12-3.65,12.67-6.41,18.75-10.08,2.73-1.65,2.92-4.68,4.09-7.18a22.88,22.88,0,0,1,10.13-6.48,16.68,16.68,0,0,0,8.83-4.07c1.92-1.77,4.22-2.34,6.58-3.14,5.38-1.83,9.49-5.13,10.8-11.05,3.21-4.35,8.52-6.36,11.83-10.6,4.36-3.74,7.71-8.7,13.27-11,2.63-.22,5.2-.61,7.31-2.54-.94-.55-2.38-.32-2.49-1.84.15-2.11,2-2.89,3.27-4.06a54.73,54.73,0,0,0,9.43-10.61c1.34-1.57,3.33-2.07,5-3.06a30.23,30.23,0,0,0,12.93-15.12C528.82,690.26,529.2,688.19,531.37,687.4Z" transform="translate(0 0)"/><path class="cls-3" d="M.1,466V409c2.74,0,3.35,2.4,4.33,4.16,5.08,9.17,10.09,18.33,17.05,26.31,2.81,3.22,3.33,7.8,5.47,11.61,9.44,16.79,21.89,31.39,33.2,46.8,9.73,13.25,19.58,26.46,30.54,38.72,12,13.49,23.57,27.42,35.33,41.16,7.8,9.12,17.17,16.67,26.11,24.63a73.21,73.21,0,0,1,7,6.43A19.68,19.68,0,0,0,171.27,616c1.74.27,3.17.85,4,2.57a4.53,4.53,0,0,0,3.56,2.46c2.82.5,6.82-.14,3.86,5.11-.65,1.16,2,2.42,3.32,2.85,3.47,1.08,5.14,2.44,5.56,6.75.38,3.94,4.32,7,8.7,7.93,2.78.59,3.81,2.31,5.21,4.61,2.81,4.65,5.64,9.73,11.85,10.84a2.88,2.88,0,0,1,2.54,2.11c.95,4,4.07,6.4,6.76,9.07,9.4,9.34,15.5,21.19,23.87,31.32,5.38,6.51,9.73,13.75,16.51,19.22,3.61,2.92,6.41,7.13,9.71,10.65A48.91,48.91,0,0,0,289.37,741c.22,3.34-1.1,6.24-2.62,9.08-4.61,6-10.1,11.1-15.56,16.26-5.25,3.17-9.29,1.81-14.33-1.76-27-19.09-46.74-44-61.92-73a65.06,65.06,0,0,0-12.55-16,107,107,0,0,1-11.64-13c-4.61-6.27-11.74-9.66-16.26-15.85-1.19-1.63-2.63-3.1-1.34-5.57-3.31,1.27-6.71.52-7.75-2.21-2.29-6-8-8-12.06-11.81a330.68,330.68,0,0,1-24.15-24.53c-7.36-8.38-16-15.57-23.09-24.21-9.86-11.92-20-23.63-29.89-35.52-4.22-5.06-8-10.48-11.78-15.81-4-5.61-9.81-10.44-13.73-16.22C20.57,495.83,9.49,481.48.1,466Z" transform="translate(0 0)"/><path class="cls-4" d="M.1,319c4.13,3.37,4.5,8.72,6.82,13.05C12.26,342,15,353.15,20.35,363c4.24,7.86,6.94,16.87,12.58,23.51,4.6,5.4,6.64,12,11,17.41,2.27,2.85,3.72,7.12,5.55,10.75s3.28,7.69,8.06,8.74a2.49,2.49,0,0,1,1.39,1.86c.56,8,6.33,13.14,10.88,18.47,5.16,6,8.07,13.23,12.58,19.56,7.21,10.13,14.84,19.92,22.36,29.79s14.56,20.22,22.89,29.37c7.85,8.62,14.81,18.22,24.46,25.14,3.79,2.71,6.51,6.67,9.49,10.06,5.31,6.05,12.41,10,17.12,16.92,4.09,6,10.64,10.35,16.1,15.43,1.42,1.33,2.7.84,4-.22a1.65,1.65,0,0,1,2.25-.15,1.58,1.58,0,0,1,.47,2.19c-2.72,4.9,1.58,5.44,4.25,5.91,3.27.57,6.23.5,4.95,5.12a1.25,1.25,0,0,0,.81,1.6c.78.31,1.21-.12,1.47-.84.52-1.42,1-3.25,3-1.92,1.67,1.12.44,2.34-.51,3.28-2,2,.11,2.88,1.09,4,6.78,7.58,14.94,13.69,22.62,20.25,13.08,11.16,26.92,21.46,40.59,31.93,5.47,4.2,10.59,9.05,17.48,11.08,1.51.45,1.47,2,1.85,3.26,1.51,5.11,2.58,5.42,6.67,2.27,1.31-1,2.73-1.89,4.1-2.83.54.48.91,1.28.47,1.73-2.91,2.94-2.71,6.89-3.52,10.51-2.42,11.54-5.46,22.84-12.61,32.54-3.85,4.2-5.74,4.18-10,.72-3.76-3-5.31-7.59-8.2-11.2-4.77-6-10.14-11.51-14.11-18.09-6-9.9-14.32-17.5-23.49-24.18-7-5.14-12.08-12.36-19.07-17.49-.8-.58-1.77-1.33-2-2.22-1.31-6.06-6-8-11.09-10-3.44-1.31-5.93-4.53-7.92-7.43-2.95-4.28-6.94-7.06-10.95-10a171.37,171.37,0,0,1-25.88-23.36,67.75,67.75,0,0,0-11.25-9.92c-5.75-4-9.89-10.13-15.06-15-15.1-14.31-28.17-30.48-41.17-46.62-13.14-16.31-25.76-33.06-38-50.06-4.28-5.92-7.9-12.39-12.21-18.1-4.56-6.05-8-12.93-13.39-18.43-2.08-2.13-3.48-4.95-1-8a3.8,3.8,0,0,1-5.07-1.44c-1.68-2.48-4-4.91-4.27-7.83-.82-8.47-7.3-13.93-10.76-21-2.56-5.2-5.9-10-7.12-15.79A6,6,0,0,0,.1,381Z" transform="translate(0 0)"/><path class="cls-5" d="M226.06,836.93a352.62,352.62,0,0,1-41.62-1.17A435.31,435.31,0,0,1,115,823.65c-15.16-4-29.85-9.82-44.74-14.83a73.32,73.32,0,0,1-23.34-8.75,223.6,223.6,0,0,1-21-11.16c-1.3-1-2.91-1.59-3.69-3.17-7.42-3.85-14.14-9-22.12-11.82V640c3.11-1.36,6.21.14,9.18.49s2.82,3.14,1.42,5.5c-3.58,6.06-2.56,14,1.66,19.6a45.55,45.55,0,0,1,5.22,9.91c2.47,5.9,4.88,12,8.86,17.18.81,1.06,2,2,2.22,3.27,1.73,10,9.12,16.3,15.12,23.56,5,6,8.87,12.88,14.24,18.62,1,1.09,1.78,2.65,3.16,3.13,7.38,2.57,11.21,8.8,16.06,14.29,10.7,12.12,23.05,22.54,35.55,32.83,9.64,7.92,20.67,13.32,31.07,19.86,8.51,5.34,17.67,9.18,26.82,13.18,14.06,6.16,29.12,8.16,43.91,11.35C218.6,833.58,222.92,833.68,226.06,836.93Z" transform="translate(0 0)"/><path class="cls-6" d="M.1,466c1.95,1.09,3.12,2.87,4.41,4.63,7.22,9.89,14.24,20,21,30.13,4.94,7.42,11.31,13.68,15.69,21.4.09.15.13.35.26.42,7.39,4.12,8.6,13,14.68,18.53,5.91,5.34,10.9,12,15.82,18.42,16,20.88,35.32,38.72,53,58.08,4,4.4,8.32,10,13,11.69,5.29,1.89,5.36,5.67,7.79,8.61,1.91,2.31,4.32,4.57,7.49,1.4.58-.58,1.3-1.24,2.08-.29.27.33.52,1.12.35,1.32-5.14,5.76,1.94,9.09,3.89,10,6.89,3.16,9.91,9.66,14.56,14.56,6.3,6.64,13.17,12.87,18.27,20.63,6.29,9.56,10.73,20.26,17.68,29.38,7.13,9.34,14.08,18.9,22.12,27.41,8.68,9.2,18.84,16.92,29.2,24.25,1.68,1.19,3.51,2,5.42.2,1.22-1.13,2.83-.76,4.31-.8a10.78,10.78,0,0,0-1.25,8.88c.28,1,.9,2.33.28,2.89-3.83,3.44-5.57,8.65-9.92,11.62a9,9,0,0,1-8-1.2c-3.48-2.14-7.42-3.43-10.64-6a46.5,46.5,0,0,0-7.32-5.21,9.45,9.45,0,0,1-1.12-.79,61.34,61.34,0,0,1-8.93-8.19,12,12,0,0,1-1.06-.82c-2.16-1.89-3.85-4.34-6.69-5.38-3.21-1.6-4.69-5-7.33-7.17-6.88-7.77-12.67-16.46-20.08-23.78-2.28-1.71-3.63-4.28-5.52-6.24-4.29-4.47-9.27-8.21-9.13-15.34,0-1.08-1.9-1.7-2.88-2.59C165.15,701,162.45,693,158.05,686c-3.29-5.18-6.49-10.34-11.57-14-5.41-4.84-10.86-9.63-15.2-15.51-1.19-3-3.56-5-6.1-6.77a88,88,0,0,1-11-12.49c-1.23-3.88-4.6-6.47-6.16-10.15-1.36-1.1-3.36-1-4.55-2.45-1.6-2-2.08-4.93-4.93-5.88a29.26,29.26,0,0,1-9.32-10.86,70.77,70.77,0,0,0-10.79-10,6.17,6.17,0,0,1-1-.92,23.9,23.9,0,0,0-6.05-6.11,8.72,8.72,0,0,1-3.17-3.56c-1.14-3.26-4.25-4.51-6.67-6.47a6.17,6.17,0,0,1-1.31-1.61c-1.77-2.9-3.36-6-6.65-7.53a214.75,214.75,0,0,1-19.47-24.61,25.39,25.39,0,0,1-5.78-5.74c-6.2-8.55-13.18-16.62-17.86-26.12C7.76,509.78,3.33,505.88.1,501Z" transform="translate(0 0)"/><path class="cls-7" d="M226.06,836.93c-13.37-3.89-27.34-5.18-40.65-9.13-13.15-3.89-26-8.8-37.83-16.07-8.45-5.2-17.6-9.34-25.66-15.05-17.24-12.21-33.33-26-47.11-42-4.29-5-8.17-9.32-14.16-12.35-3.72-1.88-6.7-6-9-9.74-5.81-9.33-13.46-17.17-20.14-25.79a7.31,7.31,0,0,1-1.41-2c-3.17-10.08-9.39-18.6-13.83-28-1.11-2.33-2-6.71-3.48-8-5-4.6-5.21-9.89-5.72-15.91-.26-3-1-4.78,1.86-6.5a3.45,3.45,0,0,0,1.75-3.84c-.56-1.75-2.29-1.79-3.81-1.36C4.36,641.89,2.39,640.1.1,640V603c3.16-1.45,4.18,1.19,5.28,3q6.19,10.28,13.4,19.87c2,2.68,3.79,5.48,7.08,6.81a3.54,3.54,0,0,1,2.15,2c1.44,5.12,5.56,9,6.72,15-.28-2.2-.53-3.76,1.35-4.39a3.87,3.87,0,0,1,4.44,1.45,11.79,11.79,0,0,1,2.33,4.94c4.29,19,15,34.94,24.4,51.49a3.78,3.78,0,0,0,1.22,1.56c5.63,2.91,7.67,8.75,10.19,13.72C86.58,734.08,99,746,110.22,758.88c13,14.88,28.54,27,44.28,38.66a119.91,119.91,0,0,0,38.08,19.31c4,1.16,7.57,3.38,11.47,4.86a133,133,0,0,0,44.25,9.1c5.3.13,11-.32,15.82,3.15C251.55,836.43,238.79,836.47,226.06,836.93Z" transform="translate(0 0)"/><path class="cls-8" d="M.1,381c1.67.07,3.81-.06,3.63,2.3-.35,4.63,1.76,8.54,4.16,11.87,4.25,5.92,6.3,13.28,12,18.2a2.58,2.58,0,0,1,.69,2.69c-.91,5.36,3,8.85,5.31,12.94.9,1.64,2.59.86,3.89-.15,1-.75,2.22-1.32,2.94.12.55,1.12-.34,1.77-1.48,2-3.25.68-2.21,2.75-1.32,4.56a29.17,29.17,0,0,0,2.32,3.2c2.67,3.94,5.26,8.18,8.21,11.63,5.27,6.16,8.34,13.54,13.27,19.81,9.92,12.62,19.26,25.68,29.15,38.32,8.25,10.55,16,21.49,25.29,31.27,6.92,7.28,12.84,15.51,19.49,23.07,3.12,3.53,7.29,6.14,10.32,9.73s7.15,5.67,9.36,9.83c.61,1.13,1.62,2.54,2.7,2.83,6.68,1.79,9.54,7.79,13.9,12.12,9.39,9.34,18.89,18.49,30.25,25.58,3.64,2.28,5.35,6.94,8.64,10,2.5,2.33,4.92,4.32,8.32,5s5.68,2.11,6,6.15c.27,3.39,3.62,5,5.84,7.14,15.8,15.35,34.27,27.89,46.24,47.28a120.62,120.62,0,0,0,16.05,21.21c3,3.09,5.56,3.09,7.77-.81,2,1.87,2.42,4.36.91,6.31-3,3.94-3.93,8.27-3.79,13a3.21,3.21,0,0,1-1.22,2.62,7.09,7.09,0,0,1-5.44-1.84c-6-5-11.19-10.75-16.53-16.44-4.26-4.54-8.93-8.68-12.6-13.79-7.05-9.83-14.76-19.17-21.28-29.4-2.36-3.7-6-6.57-9-9.9-2.14-2.41-5.49-4-5.27-8,.05-.91-.74-1.4-1.68-1.48-7.64-.64-10.33-6.7-13.13-12.38-.88-1.79-1.71-2.69-3.59-2.7-5.57,0-7.26-5.26-10.82-8,3.07-6.56-3.83-5.5-6.13-7.94a24.7,24.7,0,0,0-3.56-2.64c1.09-.86,3.45-1,2.79-3.21-.6-2-2.29,0-3.44-.58-2.05-1-4.64-.49-5.69-3.9-.45-1.48-4.46-2.14-7-2.62a7.61,7.61,0,0,1-4.28-2.24c-9.19-9.37-19.77-17.26-29-26.52s-17.19-20.07-26.15-29.77c-5.79-6.28-11-13-16.77-19.35A243.41,243.41,0,0,1,74.35,518.7c-12-16.42-24.62-32.36-36.66-48.74C32.59,463,27,456,24.1,448.08c-2.75-7.45-8.15-12.65-12-19.07-4-6.68-7.07-13.92-12-20Z" transform="translate(0 0)"/><path class="cls-9" d="M.1,543V523c3.13-.42,4.21,2.19,5.73,4,12.86,15.46,23.92,32.36,37.27,47.41A245.91,245.91,0,0,0,62.3,594c3.2,2.89,5.78,6.44,8.49,9.76C76.07,610.17,82,616,87.72,622c14,14.64,26.47,30.52,40,45.56a77.16,77.16,0,0,1,12.23,18.33c4.72,9.87,9.49,20.24,18.33,27.6,2,1.63,1.42,4.41,3,6.21,7.45,8.73,13.55,18.68,21.79,26.62s16.9,15.43,25,23.46c10.66,10.6,23,18.55,36,25.61a26.33,26.33,0,0,0,12.34,3.22c2.28,2.16,1.05,3.79-.79,5.34-1.68,1.43-3.84,1.93-5.73,2.95a3.94,3.94,0,0,1-3.36.51c-7.4-2.69-15.27-3.69-22.41-7.59A153.56,153.56,0,0,1,206.18,789c-2.29-1.68-4.64-3.21-6.32-5.56a8,8,0,0,0-5.4-3.29c-1.83-.31-3.8-.68-5-2.05-5.4-6-12.36-10.51-16.88-17.44-2.47-3.77-6.13-6.53-10-8.82-2.36-1.38-4.48-2.89-5.43-5.6a4.46,4.46,0,0,0-1.25-2.13C145.7,736.37,139.93,725,132.65,715c-7.72-10.6-13.1-22.79-19.89-34.06-3.23-5.36-5.52-11.29-10-15.91-3.61-3.72-5.12-9-8.64-12.78-13.57-14.54-26.79-29.39-40.39-43.9-6.29-6.7-13.46-12.82-18.14-21.06-2.71-4.78-7.46-8-11.14-12-5.25-5.76-9-12.38-13-18.83-1.36-2.18-2.53-4.17-4.81-5.47C3.47,549.18,1.87,546,.1,543Z" transform="translate(0 0)"/><path class="cls-6" d="M256.17,799c-2.56.49-4.88,1.13-7.67-.16-15.93-7.36-30.38-16.71-42.64-29.42-4.47-4.64-9.92-8.33-14.44-12.92-8.17-8.3-16.62-16.38-23.23-26.11-2.22-3.28-5.3-6-7.44-9.3-7.28-11.31-16.67-21.43-21.77-33.91-3.43-8.37-8.83-15-14.39-21.57-5.78-6.76-11.7-13.45-17.56-20.16-4.77-5.45-9.31-11.11-13.84-16.71-3.38-4.17-7.94-8.13-12-12.14-6.5-6.42-12.32-13.42-18.33-20.28-2.71-3.11-5.94-6.07-9-9-14.08-13.49-25.42-29.21-37.19-44.64C11.49,535.87,6.73,528.58.1,523V501c5.22,3.4,8.64,8.21,11.38,13.76C16.16,524.26,23.62,532,29.09,541c1.3,2.5,2.68,4.91,6,5,5.08,9.28,12.75,16.59,19,25,3.16,1.94,4.52,5.46,7,8l1,1c1.79,2.87,5.47,3.86,7,7a6.33,6.33,0,0,0,3,3c1.6,2.67,4.35,4.35,6,7,4.64,2.57,6.89,8,12,10a29.86,29.86,0,0,0,9,11c2.7,1.14,2.62,4.59,5,6,1.29,1.59,3.56.74,5,2-.11,4.82,4.32,7.16,6,11,3.76,3.91,6.75,8.52,11,12,1.6,2.68,4.35,4.36,6,7a128.7,128.7,0,0,0,15,15c7.67,7.83,12.84,17.32,18,26.86,1.71,3.2,3.81,6.18,7,8.13,3.15,1.44,5.92,2.85,4.31,7.38-.45,1.26.81,4.36,1.93,4.75,6,2.07,6.67,9.13,11.76,11.86,6.09,8.48,12.26,16.89,20,24,2.86,1.81,3.87,5.46,7,7,2.63,1.64,4.32,4.39,7,6,3.09,3.27,6,6.75,10,9,2.48,2,4.9,4,8,5,4.17,2.34,8.32,4.71,12.52,7a5.67,5.67,0,0,0,5.69.1c1.21,1.15.25,2.8,1,4.56,1.58-2.9,2.73-5.77,6-6.64,1-.25,1.9-.77,2.78.06a2.37,2.37,0,0,1,.39,2.77,46.86,46.86,0,0,1-6.47,11.69c-1,1.25-2.55,2.92-3.58,0C259.48,798.05,257.54,799.49,256.17,799Z" transform="translate(0 0)"/><path class="cls-10" d="M327.14,822a196.89,196.89,0,0,1-35.06,8c-5.65.72-11.14,2.79-17,2-14.81.14-29.45-1.75-44-4.18-9.72-1.62-18.38-6.7-27.56-10.11a7.18,7.18,0,0,1-3.24-2.29c-4-5.55-10.64-6.12-16.32-8.39-7.6-3-15-6.31-21.5-11.43a349.06,349.06,0,0,1-38.33-34.77C111.24,747,100.28,732,89.29,716.74a192.73,192.73,0,0,1-14.14-23.31c-2.94-5.6-7.05-10.79-8.25-17.29a5.36,5.36,0,0,0-2-3.39c-5.95-4.29-9.47-10.65-13.7-16.35-7.93-10.67-15.39-21.69-22.8-32.75a151.76,151.76,0,0,0-17.19-20.58C7.41,599.13,4.1,594.73.1,591V573c2.51-1.38,3.66.67,4.86,2.09,7.63,9,15.62,17.67,23.58,26.38a644.44,644.44,0,0,1,48.21,60.33c6.28,8.8,11.91,18.07,18.45,26.7,2.06,2.73,2.25,6.19,3.7,9.2,6.26,13,15.87,23.74,23.69,35.67,8.48,12.93,20.17,22.95,30.22,34.44,9.87,11.31,22.53,18.7,34.69,26.52,7.72,5,16.39,9,24.74,13.29a13.59,13.59,0,0,0,4.83,1.17c1.53.16,3,.54,3.73,2.09,2,4.21,6,5.6,10,6.69,5.7,1.56,11.45,3,17.46,2.31a7.05,7.05,0,0,0,6.21,3.56c3.48.22,6.86,1.33,10.39,1.08,7.14.36,14.06-1.29,21.06-2.26,4.69-1.58,9.52-.68,14.29-.82,7.6-.22,15.22.48,22.79-.61A4.25,4.25,0,0,1,327.14,822Z" transform="translate(0 0)"/><path class="cls-11" d="M247.88,819.88a7.78,7.78,0,0,1-7.75,1.13c-5.43-1.83-11.47-1.68-16.43-5.19-1.61-1.14-3.66-1.69-3.78-4.17a1.71,1.71,0,0,0-2.07-1.67c-5.91.63-9.75-3.78-14.45-6-2.63-1.25-4.78-3.33-8-3.52a3.1,3.1,0,0,1-3.11-2.74,3.07,3.07,0,0,0-.34-1.23c-8.33.53-12.19-6.8-18.19-10.32-2.57-1.51-5.1-3.08-7.63-4.65-9.59-6-15.65-15.63-23.93-23-10.22-9.1-17.47-20.6-25.45-31.57-4.77-6.56-9.68-13-14-19.89-2.9-4.66-6.22-9.24-7-15a9,9,0,0,0-1.85-3.44c-13.77-19.2-26.8-39-41.61-57.37-10.2-12.65-20.23-25.62-32.12-36.93C14.24,588.69,9.31,582,4,575.71,2.91,574.41,2,573,.1,573V555c3.74-1.25,5.7,1.39,7.1,3.87,10.48,18.67,25.93,33.23,39.93,49a134.31,134.31,0,0,0,15.39,15.43c8.58,6.94,13,16.88,20.2,24.74s12.35,17.3,18.62,25.89c6.56,9,11.49,19,16.65,28.8,7.34,14,17.46,25.93,26.68,38.54,10.42,14.23,24.43,24.84,37.08,36.82,4.25,4,9.85,6.16,14.74,9.3s9.26,6.46,14.07,9.41a94.79,94.79,0,0,0,12.05,5.72c5.17,2.25,11.29,2.62,15.51,7.24,2.23,2.44,5.31,4,8.86,2a15.65,15.65,0,0,1,2.13,8.37A.91.91,0,0,1,247.88,819.88Z" transform="translate(0 0)"/><path class="cls-7" d="M.1,591c2.12-.06,3.37,1.57,4.51,2.84,8.37,9.31,17.68,18,24.55,28.37s14.06,20.43,20.91,30.76c3.57,5.38,7.27,11,11.7,15.33,4,4,5.49,8.33,8,12.79,5.08,9.1,8.93,19,15,27.39,5.61,7.82,11.51,15.55,16.66,23.62,9,14,22,24.31,32.14,37.21,4.33,5.52,10.34,9.77,15.82,14.31s11.15,8.84,16.91,13a61.82,61.82,0,0,0,20.5,9.72c1.56.43,3.24.78,4.41,2.16.65.75,1.53,1.62,2.56,1.25,2.49-.91,5.19-3.75,4.69,2.46-.13,1.65,4.76,4.42,7.77,5.49,12.27,4.38,24.14,10.75,37.45,10.95,9,.13,17.73,2.59,26.71,2.26a8.75,8.75,0,0,1,4.79,1.07c-3.47,1.75-7.21,2-11,2-13.62-2.85-27.77-1.27-41.27-5-9.36-2.61-18.89-4.8-27.38-9.79-2.54-1.49-5.5-1.07-8.1-2.23-11.51-5.14-22.87-10.64-33.25-17.74-7.76-5.3-14.79-11.7-22-17.74C113.93,766.29,98.2,748.82,84,730c-4.33-5.73-8.26-12.08-10.52-19.15a2.47,2.47,0,0,0-.76-1.27c-10.19-6.46-12.94-18.08-19-27.41-2.19-3.41-2.88-8.51-4.86-10.9-3.1-3.76-2.38-9.25-6.69-11.92a2.17,2.17,0,0,1-.71-3.09c2.07-3.62-.93-6.15-2-9a2.33,2.33,0,0,0-3.45-1c-1.76,1.17-.5,2.16.62,3,.81.63,1.67,1.53.39,2.32a1.72,1.72,0,0,1-2.48-1c-1.1-4.57-5.16-7.58-6.23-12.14-.38-1.61-.6-3.61-2.17-4.33-8.63-4-11.51-12.8-16.76-19.61a41.23,41.23,0,0,1-5.51-8.84A4.2,4.2,0,0,0,.1,603Z" transform="translate(0 0)"/><path class="cls-12" d="M21.26,80.77C30.35,76,39.47,71.19,48.53,66.3c3.06-1.66,6-3.53,9.52-4.06-1.23,4.72-5.54,6.36-9,8.61a62.25,62.25,0,0,0-13.28,12C31.92,87.19,30.4,92.8,30,98c-.34,4,.76,8.84,1.92,13,2.45,8.92.8,17.53-.87,26.15-1.12,5.76-.1,12-3.91,17.24-1.16,1.6.39,3.45,1.48,5a13.41,13.41,0,0,1,1.91,13.26c-1.69,4.25-1.66,8,.69,11.87,1.84,3.05,1.81,6.09-1.3,8.41-2.34,1.76-1.75,3.64-.6,5.67.36,2.13-1.34,2.47-2.7,2.81-3.89,1-6.19,3.6-7.71,7-.84,1.91-1.76,3.71-4.18,3.5-5.21-.45-10.23-.23-14.6,3.13v-104C1.82,106.7,4,103,9.67,103.58c2.28.26,3.15-1.37,3.79-3.29-1.28,2.17-2.73,4-5.61,3.18-1.53-.45-2-1.66-2.19-3C5.29,97.7,6.94,96.33,9.12,95,14.74,91.67,18.3,86.46,21.26,80.77Z" transform="translate(0 0)"/><path class="cls-9" d="M246.87,811.9c-1.17,3-3.06,3.65-5.57,1.57-2-1.67-4.78-2.33-6.21-4.84-.92-1.61-2.67-1.87-4.41-1.7-2.16.21-4.1-.34-5.25-2.17-1.73-2.76-4.56-.67-6.78-1.89a178.73,178.73,0,0,1-17.5-11.17c-5.33-3.79-11.43-6.5-16.78-10.26C176.2,775.7,169.67,768,162,761.68c-11.43-9.44-19.69-21.4-28.45-32.94-7.18-9.46-14.22-19.12-18.92-30.25-1.79-4.22-5.43-7.66-7.12-11.89-3.75-9.38-10.82-16.47-16.2-24.69-5.59-8.54-11.49-17-18.39-24.48-3.77-4.07-6.07-9-10.84-12.84-8.58-6.83-16-15.51-23.48-23.72-8.27-9-16.15-18.43-23.91-27.91A68.09,68.09,0,0,1,7.3,561.21C5.65,558,3.53,555.87.1,555V543c6.43,6.12,13,11.89,16.93,20.35,3.07,6.66,8.69,11.83,13.86,17.07,2.8,2.83,6,5.26,7.49,9.18,1.17,3.19,4.45,4.4,6.37,6.76a300.39,300.39,0,0,0,21.37,23.43c6.59,6.55,12.21,13.86,18.26,20.83,3,3.39,7,5.48,9.84,9.47,3,4.31,5.35,9,8.6,13.21C113.76,677.37,121.18,693.6,130,709c3.73,6.5,8.56,12.2,13,18.12,3,4,4.95,8.63,8.7,12.06,6.74,6.19,12.88,13,20.13,18.68,3.58,2.83,6.13,7.28,9.7,10.7,5.14,4.91,9.62,9.69,16.86,12.17,3.77,1.29,7.26,5.86,10.72,9.07,5.74,5.32,13,8.27,19.65,11.18,5.62,2.47,12.16,5,18.78,5.62a1.7,1.7,0,0,0,1.62-.9c1.59-.37,3.28-.08,3.77,1.43.57,1.79-1.24,2.43-2.56,3A20.3,20.3,0,0,1,246.87,811.9Z" transform="translate(0 0)"/><path class="cls-13" d="M523.11,166.41c-.07-11.47,3.69-21,13.59-27.62,10.34-6.88,22.19-6.69,32.43.5a10.44,10.44,0,0,0,1.77.78v40c-6.87,9-20,12.18-31.39,7.69Z" transform="translate(0 0)"/><path class="cls-2" d="M539.51,187.75c4.26-.85,8.32,1.09,12.63.69,7.32-.67,12.8-4.95,18.76-8.38v54c-5.16-6.75-9.2-14.21-13.5-21.49C552.19,203.74,545.56,196,539.51,187.75Z" transform="translate(0 0)"/><path class="cls-14" d="M.1,215.05c3.2-5.68,8.49-4.76,13.6-4.23,1.37.14,3.07.51,3.39-1.09,1.32-6.68,6.49-8.82,12-10.68,1.91-2.7,2.82-7.16,7.89-4.05.85.53,1.17-1.29,1.67-2.05,1.36-2,2.86-2.54,5-1,1.79,1.32,4.88,1.58,4.78,4.45-.09,2.65-2.67,3.56-4.78,4.57-2.39,1.15-4.56,2.73-7.19,4,3.59-2.56,5.92-1.53,7.35,2.13,1.29,3.32.63,4.36-3,4.22a5.94,5.94,0,0,0-3.25.88c-.87.49-2,1.55-2.65,1.16-4-2.64-7.11.65-10.63,1.28a14.15,14.15,0,0,0-9.15,5.53c-3.5,4.65-8.17,8.27-11.41,13.69,1.55,0,4-1,4,1.39,0,3.49-2.26,5.29-5.59,5.82L.1,240Z" transform="translate(0 0)"/><path class="cls-15" d="M21.26,80.77A21.71,21.71,0,0,1,8.91,96.06c-2.42,1.08-2.18,3-2.1,5A1.91,1.91,0,0,0,9,103.11c2.4-.12,2.91-1.75,3.13-3.67.07-.61.12-1.22.21-2,1.52.6,3.47.64,3,2.71s-2.37,4.43-3.8,4.08C5.12,102.64,3.4,108,.1,111.07v-18Z" transform="translate(0 0)"/><path class="cls-16" d="M254,390c1.62,1.35,3.33,2.62,4,4.75.49,1.49,1.19,1.24,2,.28,2.11-1.87-.16-4.29.79-6.31L267,382c.8-1.82,3.28,1.9,3.72-1.12-.26-2-.76-4,.32-5.86,2.78-.94,5.48.15,7.61,1.38,3.38,2,6.46,3.46,10.58,2.81,2.49-.39,3.47,1.94,3.95,4.28,1.13,5.58,4.69,9.37,9.76,11.5,3.11,1.31,4.28,4.57,7.16,6.22.37-2.13-1.5-2.31-2.39-3.16-2.32-2.25-1.57-4.57-.26-6.8s3.23-2,5.61-1.28c10.14,3.2,16.25,11.65,24,18,2.14,1.75,1.15,4.25,1.2,6.75,4.17-.85,6.49-5.4,10.94-4.56,4.16,1.35,8.93.75,12.42,4.25,1.16,1.16,2.64,2.07,3.38,3.57,1.34,2.75,2.5,4.63,6.33,2.89,2.4-1.09,2.82,1.56,2.26,3.45s-2.39,2.62-4,3.52c-3.39,1.9-4.62,5.23-2.31,8.14,2.05,2.6,2.93,5.51,4,8.43,4.21,6.26,10,8.84,17.52,7.85,5.38-.71,10.77-.91,13.8,5.1,1.11,2.19,2.9,1.8,4.72,1,1.56-.72,3.25-.81,3.48,1.23.52,4.57,4,5.24,7.38,6.11,3.87,1.44,1.74,4.54,1.92,7.16,2.13-4.43,1.67-9.85,5.81-13.24,3.95-.9,4.1,1.5,3.76,4.33-.22,1.85-1.77,3.56-.31,5.87,1.67-3.83,5.69-5.8,6.88-9.91.55-1.9,2-3.93,3.71-3.5,5.48,1.35,12.29-1.73,16.3,4.85,1.48,2.43,4.08,2.7,6.69,1.77,4.77-1.69,9.39-2.84,14.57-1,3.53,1.26,9.61-4.6,10.53-9.45.15-.78-.23-1.68.61-2.27a5.3,5.3,0,0,1,1.15,8.23c-.69.81-2,1.12-1.91,2.53l0,.67a6.83,6.83,0,0,1-2.41,4.15c-.25.21-.51.41-.75.64.5.27.89-.26,1.37-.18a5.71,5.71,0,0,1,1.31.13c2.87.42,5.67,1.43,8.62.72,1.89,1.25,6.94-.86,4.85,4.59-1,2.56-1.92,5.14-3,8.08,4-2.29,3.45-8.32,8-8.78,5.29-.54,9.91,2.5,14.33,5,6.67,3.74,7.38,6.12,5.1,12.58,4.29-5.65,9.3-3.2,14.16-1.6a5.23,5.23,0,0,0,2.76.54c7.17-1.16,10,.37,13.93,7.11,2.44,4.17,4,9.16,10.9,7.87,2.26-.43,2.59,2.92,2.76,5.08,1.16,15.15-4,28.42-12.64,40.41-4.39,6.09-6.34,14-11.67,18.91s-6,11.29-8.78,17c-3.26.11-3.85-2.21-3.83-4.63a22.61,22.61,0,0,0-.64-6.41c.07-2.25,1.36-4.06,2.21-6,5.2-11.93,4.74-23.56-3.42-33.85-8.35-10.52-19.76-14.74-33.15-13.12s-21.82,9.56-26.11,22.14c-.54,1.56-.74,3.27-2.06,4.46-2.07,1.35-4.24,2.58-5.09,5.15-1.13,3.41-3.41,4.16-6.58,2.75-1-4.82,3.69-7.3,5.08-11.7-3.55.63-6.38,4.19-10,1.35-.4-.32-1.1,1-1.61,1.67-1.06,1.31-2.13,2.73-4,1.12.76-4.6.95-8.8-4.39-11.23-1.73-.79-1.43-3.28-.73-5,1.44-3.65-.55-5.72-3.28-7.37-6.14-3.71-11.89-8-17.85-11.94-7-4.68-13.89-9.61-21.59-13.28-3.82-1.83-7.17-2.72-11.36-1.07-7.94,3.13-9.93,2.11-14.37-5.59-2-3.42-5-6.27-5.11-10.62-.05-1.83-1.47-2.09-2.91-1.58A51.88,51.88,0,0,1,348.51,482c-5.19,0-7-.57-8.47-5.92-.81-3-.85-6.31-3.2-8.76-.37-1.91.77-3.27,2-4.28a12.6,12.6,0,0,0,4.09-13.9,49,49,0,0,1-2.27-6.09c-.08-.32-.11-.88-.27-.92-4.51-1.13-5.26-5.4-7.35-8.57a1.79,1.79,0,0,0-2.65-.49,2.34,2.34,0,0,0-.16,3.57c3.78,4.27,5.57,9.88,9.41,14,2.54,2.74,2.84,5.47.49,7.94s-2.08,6.9-6.45,7.36c-.36-5.53-3.83-9.05-7.67-12.53-2.77-2.5-3.85-6.25-4.51-9.76-1-5.58-1.76-6.75-7.31-8-.67-.15-1.43-.34-1.71-.91-2.14-4.39-5.95-5.67-10.46-6.4-2.32-.37-3.68-2.72-4.11-5.2a43,43,0,0,0-1.51-6.5c-.27,4.45-1.18,8.19,1.28,11.83a4.72,4.72,0,0,1-.64,6c-1.73,1.87-3.86,1.62-6,.94a11.27,11.27,0,0,1-3.07-1.61c-1.12-.79-2.33-2.68-3.72-.93-1.07,1.34.09,3,1.19,4,3.52,3.05,4.81,7.07,5.38,11.44.41,3.11,1.36,6.54-2.49,8.25-2.68,1.19-8.61-1.51-9.49-4.78-1.13-4.19-3.5-7.91-4.19-12.21-.27-1.66-.55-3.59-1.84-4.55-4.46-3.28-5.39-8.61-8-13a6.26,6.26,0,0,1-1.07-4.75,6,6,0,0,0-1.21-5.61,5.26,5.26,0,0,1-.9-5.62c1.31-3.26-.14-4.15-3.21-4.12-3.66,0-5.13-2.61-6.15-5.6C251.44,393.85,251,391.41,254,390Z" transform="translate(0 0)"/><path class="cls-17" d="M236.86,463.75c.65-1.48,3.25-2.32,1.53-4.6a1.57,1.57,0,0,1-.17-.46c5.1-1.61,1.21-11.58,9.65-10.3,1.65.25,2.62-1.6,3.2-3.33a12.68,12.68,0,0,1,3.65-5.23c3.34.68,1.53,3.2,1.25,4.58-.7,3.37.34,5.51,2.84,7.82C267.23,460,276,467.43,282,477.46c3.29,5.49,9.63,7.5,14.38,11.34,7.52,6.08,13.68,13.63,21.28,19.46,6.16,4.73,10.34,11.22,16.28,16,2,1.6,2.38,4.34,3.33,6.63,1.53,3.68,3.86,6.17,8.18,6.07,3.06-.06,5,1.8,6.3,4.22,1.68,3.23,4.55,4.41,7.63,5.89,8.08,3.85,16.14,8,19.6,17.18,1.49,3.26-1.22,4.06-3.1,5.34-.17.3-1.08.28-.64.72s1.11-.19,1.67-.4c1-.44,2.08-.94,3.08.06a2.71,2.71,0,0,1,.82,2.24c.4-1.41-.84-2.07-1.39-3-.46-1.88.45-2.81,2.19-3.15,3.87.44,7.1,2.67,10.67,3.94,1.11.39,2.35,1.52,2.11,2.56-1.08,4.8,2.44,4.6,5.21,4.82,4.68.38,9,2.22,13.72,2.56a7.38,7.38,0,0,1,5.15,2.78c3,3.63,7.34,5.74,10.36,9.33a3.86,3.86,0,0,0,3.09,1.45c5.55-.37,10.48,2.69,16.11,2.57,4-.09,8.13,1.31,12.1,2.71,7.48,2.65,15.72,2.59,23,6.29,1.6.82,3.56.93,5,2.19s3,1.07,4.57.15c3.91-2.29,6.7-.48,8.91,2.68,2.85,4.07,5.08,8.54,8.3,12.4,2.23,2.68,5.8,4,7.12,7.5a30.42,30.42,0,0,1-5,7c-1.94,1.22-2.32,3-1.77,5.06L505,647.15a4.15,4.15,0,0,1-3.73.83c-13.61-1.9-23.7,3.73-31.34,14.61a6.41,6.41,0,0,1-1.71,1.77c-3.68,1.28-6.44-.72-9.09-2.73-3.61-2.74-7.08-5.37-12.12-4.71-2.66.34-4.6-1.63-6.06-3.77-3.24-4.75-7.55-6.89-13.45-7.09a28.89,28.89,0,0,1-16.05-5.88c-2.65-1.95-5.18-3.39-8.5-3.56-6.59-.33-12.91-3.13-19.69-1.91a4.22,4.22,0,0,1-4.78-2.88c-2.17-6.16-7.36-6.21-12.32-6-6.88.26-12.94-4.49-11.21-11,2.62-9.72-3.87-13.76-9.72-17.45a300.45,300.45,0,0,1-28-20.66c-2.15-1.74-4.35-3-7.22-2.56-1.26-5-.76-10.85-5.07-14.54s-7.49-8-11.47-11.73c-4.86-4.57-8.64-10.11-10-16.38-1.54-7.11-5.87-11.7-10.65-16.31-.72-.69-1.74-1.14-2.25-2A64.79,64.79,0,0,0,251.8,494a6.43,6.43,0,0,1-1.6-1.9c-.88-1.33-1.3-2.73-.34-4.18s2.17-1.25,3.56-1c3,.58,7.13,1.37,7.93-1.63s-3.16-5-5.9-6.48c-3.29-1.76-7.65-1.33-10.12-4.86a45.8,45.8,0,0,0-6.3-6.23C237.76,466.78,236.18,465.83,236.86,463.75Z" transform="translate(0 0)"/><path class="cls-18" d="M170.15,54c4.9-2.09,9.84-.56,14.41.68,7.93,2.15,15.73,4.63,24.05,4.26,2.52-.11,3.83,1,3.91,3.2.17,4.81,3.66,6.34,7.22,7.94,1.47.66,2.89,1.45,4.32,2.18,2.38,1.81.63,3-.85,3.53a31.74,31.74,0,0,0-10.43,5.63c-1.82,1.52-4.49.84-6.8,1-4.4.24-8.67.79-11.52,4.76-1.42,1-2.77.69-4.16-.14-5.36-3.23-10.93-3.6-16.49-.69-5.74,3-12.5,3.13-17.55,6.45,1.56-.57,3.47-1.82,5.83-1.21.48.12,1,.37,1.46.21,9-3.51,17.81,2,26.77.33a7.08,7.08,0,0,1,5.74,1,11.2,11.2,0,0,1,2,2.08c.87,1.42,2.45,1.59,3.81,2.13a5.64,5.64,0,0,1,3.4,3.37,4.81,4.81,0,0,1-.88,5c1.78-.57,3.92-.89,4.72,1,1.3,3.07,4,2.82,6.36,3.52a4.1,4.1,0,0,1,.3,3.5c-1.91,3.6-5.33,4-9.45,4.16,3.36,3.22,7.07,0,10.1,1.49a3.16,3.16,0,0,1,1.53,1.87c5,15.52,16.07,22.74,32,23.35,1.18,0,2.35,0,2.94,1.31-.06.48-.29,1.31-.15,1.39,1.52.76,4,.49,3.08,3.53-.52,1.66-.37,1.7-4.57,2.59.77,1,1.91.29,2.81.61,1.25.44,3.71-.76,3.52,1.42-.14,1.66-2,2.92-4.25,2.28-.74-.21-1.57-1.53-2.31,0,2.31.14-1.6,2.51,1.07,2.91.88.13.72.88-.69,1.36-7.28,2.5-14.85,4.34-20,10.93-1.35,1.72-3.64,2.87-5.71,3.84-10.59,5-12.72,14.2-7.17,25.37,3.74,7.52,7.25,15.5,7.61,24.31.12,2.87-1.46,5.1-2.39,7.48-1,2.63-4.65,1.64-6.6-.39-3.77-3.92-5.89-9.09-10.09-12.62a1.61,1.61,0,0,1-.53-.84c-.61-4-4.23-7.4-2-11.84a1.2,1.2,0,0,0,.16-.47c.41-5.52-5.17-6.7-7.58-10.21-1.34-1.95-3.88-1.95-6.29-.5-3.24,2-6.2,3-9.53-.92-2.91-3.41-7.9-2.63-12-2.53-2.67.06-5.39,2.44-7.46-1.12-2.85,3.37-7,.45-10.24,2.14-1.58.82-3.29,1.41-5,2.11.73,2.42,2.44-.87,3.12.87-2.33,3-2.33,3,1.74,5.76-.23.2-.57.59-.66.53-4-2.21-8.1-1.91-12.19-.16a2.22,2.22,0,0,1-2.74-.6c-2.63-3.92-5.9-4.28-9.78-2.07-1.2-1.29-.8-2.77-.41-4.2,3.77-13.89-1.13-25.21-10.36-35.28-1.21-1.32-2.91-2.23-3.44-4.11.92-2.16,3.68-2.15,4.81-4.08,1-1.63,3.63-2.95.17-5.05-2-1.23,0-2.34,1-3.23-.65-.23-1.18.23-1.77.37-2.18.48-4.57,2.34-6.49.17s1.37-3.71,1.54-5.64c.56-6.24,7.37-9.43,7.51-15.81a1.59,1.59,0,0,1,.87-1.18c7.11-3.45,5.48-10.4,6.07-16.17.35-3.33,1-5.94,3.2-8.47,2.51-2.87,4.81-6.09,2.9-10.33a3.44,3.44,0,0,1,1.48-3A33.72,33.72,0,0,0,143.2,72a2.7,2.7,0,0,1,1.42-1.3c1.4-.15,2.12-.86,2.93-2.15,4.95-7.9,12.65-12,21.2-14.88A1.72,1.72,0,0,1,170.15,54Z" transform="translate(0 0)"/><path class="cls-19" d="M378,565c-3.35-9.12-11.34-13.09-19.29-16.8-3.23-1.51-6.25-2.52-7.83-6.18-1.13-2.61-3.1-4.33-6.73-3.8a6.7,6.7,0,0,1-7-4.53c-4.05-11.11-12.94-18-21.45-25.15-5.08-4.26-8.74-9.85-14.22-13.76-4.53-3.24-8.39-7.38-13.36-10.12-4.49-2.47-7.21-6.61-10-10.82-5.37-8.05-13-14.13-20-20.59-2.89-2.64-4.85-4.62-3.27-8.76.46-1.19,1.4-3.13-.09-4.62.32-.58,1-1.55.92-1.67-5.34-5.18-.39-11.66-1.86-17.52a25,25,0,0,1-.16-9.78c.58-2.85-2.89-4.8-4.54-7.15-1.41-2-3.28-3.73-4.35-6-.35-.73-1.07-1.53-1-2.19.23-1.46,2.82-3.38,1.21-4.07-3.41-1.46-5.06-5.18-8.85-6-2.36-.52-4.4.34-5.25,1.9a10.91,10.91,0,0,1-6.2,5.23c-2.81,1.09-.73,2.5.2,3.74s3.47,2.64,2.48,3.84a8.9,8.9,0,0,1-6,2.9c-2.7.24-2-2-2.75-3.32s-.72-3.18-3-1.38c-1.31,1-2.53-.44-3.06-1.63-1.08-2.47-3.23-3.15-5.5-3.76a21.71,21.71,0,0,1-8-7,4.24,4.24,0,0,1-.29-5.05,2.76,2.76,0,0,1,4.21-.81,7,7,0,0,1,1.52,1.26c4.42,6.34,10.11,7.72,16.88,4,7.83-4.34,15.71-6.93,24.52-2.39,3.39,1.75,5.2,5,8.14,7.08-2.85,6.27-.26,10.35,6.51,10.4,2.72,0,4.42,1.63,3,4.16-1.89,3.42-1.41,5.89,1.54,8.15.25.2.6.65.53.81-2.12,4.73.76,8.39,2.54,12.3.39.87.13,2.34.72,2.76,5.52,3.89,6.46,10.27,9,15.79a12.82,12.82,0,0,1,1.11,4.22,8.32,8.32,0,0,0,8.11,7.27c1.62,0,2.75-.81,2.7-2.29-.16-4.85,0-9.84-3.61-13.8a26.28,26.28,0,0,1-2.08-2.15c-1.47-2-3.52-4.38-1.22-6.61s3.87.42,5.7,1.81c2.16,1.63,5,3.61,7.59,1.14,2.39-2.28.65-4.65-.75-7.09-2.45-4.28.47-8.74.1-13.26a14.22,14.22,0,0,1,3.41,8.31c.42,4.09,2.14,6.41,6.76,5.84,3-.37,4.9,1.44,6.18,4.06.62,1.25,1.11,3.62,2.78,2.91,3.12-1.32,5.23-2.71,5.7,2.46.18,2.11,3.15,2.79,2.49,6.69-.6,3.53,2.41,9.33,6.88,11.43,5.29,2.49,4.06,6.68,4.21,10.72a3.54,3.54,0,0,1,.84,3.48c-.45,2-2.45,3.16-3.09,5-.51,1.49-1.44,3.55.82,4.21,1.69.5,2.61-1.06,2.86-2.71.32-2.12,1-4.2.57-6.4a3.06,3.06,0,0,1,1-2.62c4.17.52,3,4.32,3.74,6.68a29.48,29.48,0,0,0,2.11,6c.63,1.11,1.72,2.05,2.8,1.67,6.14-2.16,12.94-.08,19-3.16,3.3-1.69,5.54-2.76,5.85,3.41.29,5.64,4.62,10.82,8.92,14.78,2.91,2.69,6.74.26,9.79-1.17,2.69-1.27,5.27-1.6,7.55-.1,6.05,4,13.13,5.88,18.91,10.68,7.08,5.88,15.25,10.46,23,15.5,3.83,2.48,8.17,4.5,4.61,10.32a2.82,2.82,0,0,0,1.1,3.92c6,4.06,6.28,4.94,3.57,11.4-.89,2.69-.73,5.74-2.8,8-1.42,1-3.37,1.78-3.11,4,.18,1.58-1,4.15,1.73,4.32,2.24.14,5.58,1.43,6-2.88a19.33,19.33,0,0,1,1.37-5.23c1.71-3.54,4.05-3.64,6.83-1.23,2.74.06,5.34.63,5.76-3.75.18-1.87,2.59-4.21,5.53-4.17,2.1,3.5.54,7.5,1.54,11.19a82,82,0,0,0,5.49,14.29c-4.14,4.9-11.54,7-16.94,4.27-2.74-1.37-4.36-1.35-6.22,1.32s-5.34,4.16-4.82,8.46c.19,1.63-2.06,2.41-3.85,2.39-2.61,0-4.87-1.28-5.17-3.79a8.94,8.94,0,0,0-6.33-8,2.13,2.13,0,0,1-1.19-.89c-3.21-6.77-10.9-9-15-14.91a6.91,6.91,0,0,0-3-2.54c-5.15-2-9.81-4.34-13.16-9.17-1.54-2.21-5.06-2.31-7.81-2.74-2.33-.36-2.28,1.87-2.7,3.43-.81,2.93-1.63,5.88-5.43,6.19-1.49-.29-1.61-2.74-3.46-2.31-1.09.25-1.21,1.44-1.41,2.38-.39,1.82,1.46,1.38,2.18,2.09.71,2.05,2,4,1.25,6.33C381.53,564.78,379.41,563,378,565Z" transform="translate(0 0)"/><path class="cls-20" d="M2,241.12a21.76,21.76,0,0,0,1.87-1.56c1.32-1.34,4.17-2.62,2.66-4.59s-2.51,1.91-4.39,1.62c-1.84-4.67,2.75-7.14,4.76-9.06,3.72-3.54,6-8.37,10.37-11.2,2.17-1.4,4.11-3.49,7.11-2.63A2.12,2.12,0,0,0,27,212.61c1.73-3.1,3.33-4.21,5.83-.56,1.26,1.84,2.66.07,3.79-.71,2.06-1.44,4.05-2.87,6.19-.09,1.12-1.72.29-2.94-.18-4-.89-2.1-1.86-4.35-4.32-1.07-1,1.32-2.7,1.07-4.16.63a1.29,1.29,0,0,1-.51-1.16,3.63,3.63,0,0,1,2.9-2.45c3.41-.48,5.69-3.16,8.78-4.35,3.67-1.41,2.6-3.47-.27-4.8-2.45-1.15-5.73-4.24-6.1,1.88a1.86,1.86,0,0,1-2,1.81c-2.07-.14-1-2.41-2.1-3.47l-5.7,4.82c-3.64-2.46-4.64-4.74.16-7.15,2.52-1.26,2.9-3.48,1.32-5.87-3-4.58-3.76-8.95-1.1-14.33a10.44,10.44,0,0,0-2.31-12c-2.56-2.61-2.76-5.06-.52-7.9,2-2.57,3.08-5.29,2.05-8.77-.88-3,.9-5.86,1.67-8.61,3-10.59.07-21-.34-31.44-.08-2.16-3.61-3.14-2.37-5.6,3.51-6.9,4.9-14.77,11.23-20.39C45,71.6,52.49,68.21,58.05,62.24L83.69,52.07a1.59,1.59,0,0,1,1.21,1.41c-.25,6.66,1.58,13,2.53,19.53-3.33,4.33-7,8.46-10,13-6,9-7.38,19.45-9.19,29.88S65.75,136.64,64.06,147c-.78,4.69.6,9.57-1.2,14.27-.62,1.61,1,3.06,1.69,4.56.64,2-.26,3.59-1.15,5.18-8.89,15.76-.41,38.94,15.44,46.53,1.68.8,4,1,4.47,3.46-1.8,2.92-.49,5.84.32,8.57.69,2.32.34,4.61-1.43,5.26-5.37,2-4.77,6.92-6,10.86-1.33,4.24-2.1,8.62-3.47,12.89-1.55,4.82,1.35,9.53,2.65,14.2.62,2.22,1.39,4.48,3.24,6.09,3.63,3.17,3,8.36,5.61,12,.47,1.17-.34,1.3-1.17,1.55-1.31.39-3.29-1.33-3.9.72-.49,1.67,1.77,2.14,2.55,3.32,2.49,3.73,2.67,7.67.28,11.9,2.22,1.19,5.37-.25,6.56,2.64.68,1.65,1.89,3.22.53,5.07-1.73.95-3.47,1.86-5.17,2.85-8.71,5.06-16.44.46-23.67-3.26-5.75-3-12.2-3.86-17.69-7.22-.83-.51-2.11-.44-2.76-1.08-4.57-4.43-11.29-5.65-15.75-9.21s-10.24-6.71-12.69-12.49c-.94-2.24-4.19-5.38,1-7-1-2.75,2.23-4.6,1.71-7-1.87-8.82-3.85-17.72-9.66-24.9C2.87,244.82,2,243.33,2,241.12Z" transform="translate(0 0)"/><path class="cls-21" d="M89.07,316c-1.26-2.77-.23-7.9-6.41-5.29-1.91.81-3.25-1.61-1.94-3.61,3-4.55,2.86-8.32-2.06-11.33a3.1,3.1,0,0,1-1.37-3.86c.58-1.91,2-.94,3.27-1s2.51,1.28,3.66-.12c.93,1.48,2.07,2.66,4,2.34a5.23,5.23,0,0,1,4.91,1.92c3.19,4.43,6.78,2.46,10.52,1.34,4-1.21,8.51-3.24,12.09-2.86,4.69.49,7,.22,10.34-3.54,3.1-3.5,5.38-6.85,5.93-11.26.79-6.45,2.74-8.89,9.29-9.53,6.95-.67,13.66-4.22,21-1.64,1.12.4,2.64-.59,3.55,1.23a3.84,3.84,0,0,1-.89,5c-2.82,2.57-5.29,5.26-6.35,9.1-.9,3.24.15,6.92-2.1,9.81-.73.94.13,3.16-2,2.84-1.89-.29-.55-2.24-1.38-3.63-1.46,1.62-1,3.68-1.44,4.83-2.4,6.27,1,14.42-5.92,19.18-.73.5-1.63,1.77-1.45,2.37.31,1,1.34,1.45,2.76,1.3,8.32-.91,16.64,1.09,25.13-1.11,4.36-1.13,9.87-.49,14.65,1.14,1.15.4,2.79,1,2.7,2.55-.08,1.3.26,1.56,1.36,2,2.29.94,6.82-1.1,5.59,4.87-.54,2.6,0,5.37-.91,8.39-2.05,6.56-2.22,13.7-4.15,20.32-1.8,6.12,1.46,10.34,3.78,15.08-1.43,5.87-4,8.47-8.13,8.14-4.56-.21-4.62-6.24-8.86-7-1,1.45.41,1.62,1,2.24,1.26,1.32.36,2.38-.85,2.51-3.92.43-7.24-4.65-6.17-8.59.88-3.21-.27-6.08-2.93-8.27-5.46-4.51-9.13-10.78-15-14.54.87-2.21,2.52.41,3-1.1.18-.56-.48-1.5-.93-2.14-.77-1.1-2-1.51-3-.63-3.11,2.64-6.45,1.2-9.51.4-7.59-2-14.52-6.1-22.63-6.66-3.79-.27-6.27-3.57-8.85-6.14-2.94-2.93-5.62-6.13-8.56-9.06A19,19,0,0,0,89.07,316Z" transform="translate(0 0)"/><path class="cls-22" d="M488.66,450.27c3.53,5.88-2.94,7.58-5,11a5.49,5.49,0,0,1-7.84,1.81c-4.06-2.41-8.08-.48-11.88,1-4.22,1.66-7.43,1.12-9.56-3.11-.91-1.81-2.42-3-4.31-2.83-3.07.25-5.94.74-8.94-.93-1.52-.84-3.84.91-3.73,2.36.4,5.3-6.42,6.34-6.31,11.42,0,1-1.89,1.27-3,.5s-2.54-1.71-1.5-3.62a26.9,26.9,0,0,0,2-4.49c.76-2.32-.18-3.5-2.67-3.34-3.17-1.95-2-5.19-2.49-8.22-.27,3.37-1.46,5.78-4.87,6.65-1.58.41-1.65,1.6-.35,2.53,3,2.22,1.84,4.12-.31,6-4.09-1.29-9.58-1.12-8-8-2-.26-2.86,1.24-4.23,1.63-1.76.51-2.94.59-4-1.53a10.31,10.31,0,0,0-11.86-5.82C381.09,455.5,375,451.69,370,445a1.75,1.75,0,0,1,2.6,0c2.8,2.75,4.73,1.53,6.44-1.19,1.89,0,2.53,1.17,2.73,2.73,2.74-2.1.9-5.83,2.94-8.22-3.79-1-5.8.78-7,4-5.6-3.55-5.21-7.24,1.23-11.88a4,4,0,0,1,2.81-1.14,6,6,0,0,1,3.24,1.67c4.82,4.59,10,.7,15,.57a4.65,4.65,0,0,0,2-3.33c.41-1.74.38-3.33-1.28-4.45a2.65,2.65,0,0,0-2.8-.52c-2,1.06-1.17,2.84-1,4.45.06,1.9-.14,4.13-2.27,4.36a5.11,5.11,0,0,1-5.24-3.82,61.12,61.12,0,0,0-2.89-8.39,3.1,3.1,0,0,1,.73-3.69,15.32,15.32,0,0,0,4.78-7.06c1.1-3.23,5-1.14,7.58-1.69a4.44,4.44,0,0,1,1.92,1.12,5.3,5.3,0,0,1,1.09,1.63c2,5,2,5,5.73,1.29,2.59-2.51,6.33-2.34,9.34-2.2,4.64.23,8.22-.94,11.36-4.13a3.06,3.06,0,0,1,2.63,1.17c6,7.74,13.84,7.64,22.58,6.45,6.9-.93,13,2.15,17.7,7.44-2.29,4.49-4.65,5.9-8.38,4-2.88-1.45-4.25-.65-5.56,1.76a13.46,13.46,0,0,1-2,2.25c-.86,1-3,1.62-1.52,3.55,1,1.33,2.13,2.69,4.12,2.22,2.16-.52,3.78-.58,5.77,1.33,1.3,1.25,4.24-1.75,7,.22-1.77-4.07-.61-6.26,3.39-6.65-.49-2.55-3.16-4.61-.7-7.1l6,5.49c2.89,2.65,2,6.48,3,9.71.54,1.54,1.09,3.08,1.62,4.62.71,2-.14,4.86,3.43,5.37C489.83,447.15,487.6,449.25,488.66,450.27Z" transform="translate(0 0)"/><path class="cls-23" d="M197,95.93,196,94.25c3.41-3.54.28-5.28-2-7.25.65-6,6.43-6.07,9.42-5.56,8.47,1.45,13.06-6.57,20.47-7,.89-.05.47-1.37.14-2.13,7.89-2.65,8.23-5,1.45-11.62,2.89-1.77,6.3-1.37,9.22-2.59,1.89-.79,4-1.57,4-3.87s-2.32-3.13-4.16-3.8c-1.65-.59-3.56-.47-5.12-1.85l4.27-3.24c-3.48-.17-1.72-3.86-4.05-5.21,8.7,2.32,17.66-.46,26.29,3.39,4,1.78,7.91,2.47,11.13,6.08,2.89,3.23,12.14,1.87,15.34-1.45,1.78-1.84,3.07-.33,4.37.33,8.28,4.23,16.61,8.37,24.69,13A19.33,19.33,0,0,0,319,63.68c6.71.78,11.51,6.23,18.16,7a3.17,3.17,0,0,1,2.08,1.22c1,1.64,4.1,2.33,3.32,4.44-.71,1.93-3.39,1.36-5.33,1.6-5.47.67-10.26,4.57-16.24,3s-12.06-1.7-18.18-2c-7.72-.41-13.3,3.71-18.94,8-3.13,1.42-6,4.61-9.84,1.64-6.86-6.25-14.28-11.13-24.1-11.29-12.43-.21-21.32,5.75-28.23,15.45-1.23,1.73-1.95,3.91-4.46,4.3-5-.37-10.07-.77-15.13,0C200.36,97.27,198.46,97.31,197,95.93Z" transform="translate(0 0)"/><path class="cls-24" d="M384,555c3.83-.81,4.86-3.68,5-7,.14-3.81,1.93-4.44,5.27-3.36,4.57,1.48,9.28,2.57,11.06,7.9.1.29.41.71.64.72,9.28.63,12.78,10,20.21,13.36a6,6,0,0,1,3.14,3c1.52,3.23,3.51,5.83,7.29,6.92a4.68,4.68,0,0,1,3.46,5.35c-.31,3.16,1.27,5.14,4.63,5.07,2.43,0,4.24-1.35,2.65-3.76-1.88-2.88-.16-3.39,1.86-4.11.47-.17,1.24-.2,1.36-.51,2.75-6.84,6.76-4.93,12.19-2.95,4.06,1.48,8.93-1.17,13-3.57,1.08-.78,2-.13,2.6.57,10.86,12,24.4,14.16,39.45,10.7,4.39,1.5,5.21,5.27,5.34,9.13.16,4.89-1.76,9.38-3.46,13.87-.29.79-.84,1.69-1.58,1.83-4.67.86-4.55,4.07-4.21,7.72.32,3.47,0,7,3.75,9.06a3.35,3.35,0,0,1,1.27,2.07c-.45,1.11-.7,2.33-1.83,3-8-4.31-12.14-11.94-16.59-19.28-2.39-3.92-5-4.46-8.42-1.29-1,.93-1.83,1.77-3.39.58-6.54-5-14.11-7.36-22.24-8-5.48-.45-10-4.26-15.64-4.24-.79,0-1.7-.84-2.36-.64-6,1.83-11.16-3.31-17.1-2.18-1.63.31-2.88-.77-3.74-2.07-2.86-4.37-7.47-7-11.28-10.2-3.29-2.73-9-2.61-13.64-3.63-2.25-.49-4.58-.65-6.86-1-3.48-.59-3.41-.59-2.16-3.8.86-2.22-.93-3.27-2.47-3.52-3.37-.54-6-2.69-9.12-3.7-.71-1.34.11-2.17,1-3,.23-2.09-3.14-3.58-1-6C382,556.53,381.7,554.9,384,555Z" transform="translate(0 0)"/><path class="cls-25" d="M83.31,221c-14.82-5.86-23.14-16.65-24.79-32.56-.66-6.34,1-12.16,3.56-17.83.68-1.49,1.3-3,1.94-4.52.28-4.4,3.84-6.58,6.74-8.65,11.72-8.41,24.37-9.6,37.56-3.53a6.43,6.43,0,0,1,3.62,3.24c11.37,8.84,17.49,20.14,16,34.85a84.14,84.14,0,0,1-1.92,9.18c-3.38,6.34-7.49,12-13.65,16C103.26,223.1,93.45,223.2,83.31,221Z" transform="translate(0 0)"/><path class="cls-26" d="M218.16,96.11c3.7-6.56,8.35-12,15.05-16,13.57-8,31.13-4.24,41.67,8,8.26,8.19,9.46,18.37,8.27,29.23a7.16,7.16,0,0,1-2,3.89C276.4,134.84,267,143.12,252.84,146c-16.77,1-31.27-7.77-36.81-25.95-1.61-1.76-1.33-3.82-.95-5.9L215,110C212.8,104.62,215.12,100.28,218.16,96.11Z" transform="translate(0 0)"/><path class="cls-27" d="M467.77,663.94c8.3-14.7,21.06-19.51,37.22-16.79,12.79,4.43,21.76,12.49,25.36,26,1.27,4.75,0,9.55,1,14.24-2.71,6.42-5.4,12.76-11,17.5-3,2.54-6.73,3.48-9.7,5.84-5.17,3.93-11.18,3.06-16.78,2.14-18.53-3-31.42-19.83-30.16-38.62C464.79,670.69,465,666.81,467.77,663.94Z" transform="translate(0 0)"/><path class="cls-28" d="M400.93,409l-1-.95c-2.05-.76-5-.05-5.11-3.76-.09-2.26-1.66-1.39-2.77-.51a3.27,3.27,0,0,0-1.14,1.58c-1.56,5.12-3.89,10-4.6,15.37-3.81-.38-3.23-3.73-3.93-6.09a6.76,6.76,0,0,1,.44-3.92c1-3,2.62-5.75-1.28-8.11-1.15-.69-.38-2.82-.45-4.3s-.69-3-2.28-3.54-1.71,1.17-2.32,2.05c-2.15,3.08-4.59,2-6.88.33a18.16,18.16,0,0,0-10.92-3.8c.74,2.77,1.48,5.13.26,7.83-1,2.24,1.72,3.17,3.23,3.57,7,1.88,8.29,9.78,13.94,13,0,4.64,3.29,7.34,6.07,10.37A1.32,1.32,0,0,1,382,430a2.2,2.2,0,0,0-2,1c-3.41.33-5.93-1.53-6.2-6.14-.23-4-1.88-5.07-5.44-6-8-2.07-15.76-12.94-16.57-23.16-.95,4.09-2.25,7-.85,10.31,1.12,2.69-.13,4.11-3,4a3.5,3.5,0,0,0-2.35.66c-1.61,1.06-3.14,3.08-5.26,1.49-1.95-1.46-.5-3.28.13-5,2.8-7.48,2.79-7.49-4.62-11.72-.6-.35-1.42-.79-1.25-1.39,1.2-4.3-2.51-5.69-4.59-8.06-.89-1-1.87-2.14-1.19-3.57s2.17-1.17,3.51-1c.93.13,2.25.53,2-1.12-.15-1.13-1.28-1.4-2.35-1.38a4.68,4.68,0,0,0-4.17,7c1.56,3,.21,4.4-2.54,5-2.17.49-4.22-.21-6.34-.8-4.31-1.2-8.72-2.4-12.91.59-1.17.84-2.5,1.09-3.58-.18s-.26-2.51.56-3.57a11.5,11.5,0,0,1,3.69-3.31c6.5-1.11,7.42-3.25,3.82-8.91a23.2,23.2,0,0,1-2.78-4.64,1.61,1.61,0,0,1,.4-1.28c2.42-3.48,6.14-4.73,10-5.9,2.35-.71,6.38-.64,3.1-5.1a2.27,2.27,0,0,1,1.2-3.34c1.58-.65,2.22.89,2.32,1.86.41,4.24,3,4.65,6.59,4.71,3.87.08,7,1.92,7.86,6.21.61,3.26,2.79,3.88,5.54,3.45,2.29-.36,4.52-1.05,6.81-1.39,3.44-.51,6.6-.85,9.62,2.13,3.7,3.67,8.06,3.38,12.66.7A27.34,27.34,0,0,1,387,368.14a68.31,68.31,0,0,0,8.35,22.65c-.28,1-1,2-1.9,2.06-3.37.21-5,1.64-3.77,5.08,3.45-.41,5.79-2.77,7.36-6.12a1.72,1.72,0,0,1,1.68,1.07,12.35,12.35,0,0,1,.56,3.41c.42,3.11,1.45,4.53,4.3,1.69,2.38-2.39,4.95-1.32,7.27.08a22.39,22.39,0,0,1,5.39,5.12c1.1,1.33,2,2.87.51,4.43a3,3,0,0,1-4.82-.24c-2.63-3.78-4.36-2.88-6.35.46C404.52,409.55,402.92,410.37,400.93,409Z" transform="translate(0 0)"/><path class="cls-29" d="M170.15,54c-7.87,1.7-13.28,7.68-19.91,11.52-1.49.87-1.39,2.17-1.44,3.79-.07,2.44-1.42,3.79-3.82,1.56-1.4-1.64-.72-3.51-.33-5.2,1.78-7.64.1-14.69-3.47-21.42-1.31-2.46-2-4.85-.24-7.37,11.42-3.83,23.56-4,35.12-6.81,6.09-1.5,11.78.85,17.82-.32,6.42-1.25,13.21-.73,19.84-.79,6.81-.07,13.62.09,20.42.15,4.67,1.24,9.49-.28,14.17.82,4.85.09,9.78-.31,14.33,1.94,2.07,1,4-1.56,6-.21-.26,2.86,3.16.32,3.46,2.36-5.05,2.51-10.59,1.57-15.9,2-3.74.29-7.52.21-11.25.91-5.5,1.49-11,.62-16.49-.09-4.4-.57-8.48-1.8-13.22.82-2.72,1.51-7.32,1.53-11.09,1.28-3.05-.2-2.6-1.74.5-4.08-10.28,3.68-19.94,3.93-29.1,6.6-6,1.75-10.54,4.77-11.9,8.46C166.63,50.07,170,49.6,170.15,54Z" transform="translate(0 0)"/><path class="cls-30" d="M307.2,383.77c-.37.55-.76,1.08-1.11,1.64-1,1.6-4.3,2.82-3.14,4.43,2,2.73,2.72-1.73,4.49-1.71,3.94.06,8-1.07,11.74.79a10.85,10.85,0,0,0,5.24,1.09c1.2,0,2.44-.11,3-1.33.67-1.42-.57-2-1.44-2.76-1.14-1-2.5-2.37-1.34-3.77a13.35,13.35,0,0,1,7.82-4.94c1.78-.3,2.81,1.56,3.85,2.82.78,1,.21,1.84-.51,2.62-1.08,1.17-2.16,1.4-3.44.28-.77-.66-1.84-1.33-2.64-.42-1.15,1.32.41,2,1.1,2.79a27.76,27.76,0,0,0,3,2.62c.63.52,2,1.24,1.89,1.43-1.91,4.79,2.48,4.7,4.7,6.53,4.63,3.83,4.76,5.89,1.6,11.51-.75,1.33-3.11,2.44-1.3,4.09s2.8-1,4.26-1.48,3.26-1.67,4,1c-3.74-.09-5.75,2.93-8.49,4.66-1,.66-2.25,1.75-3.59.53s-1-2.4,0-3.52c1.39-1.55.68-2.7-.54-3.81-5.61-5.1-10.95-10.53-17-15.11-2.2-1.68-5.77-1.53-8.43-3.42-1.4-1-2.58.74-3,2.36s-1.8,3.39.75,4.66c1.88.94,4.12,1.73,4.15,4.42,0,.88-.59,1.76-1.51,1.6-2.49-.43-3.91-2.32-5.29-4.23-.67-.93-1.44-2.44-2.25-2.5-4-.28-5.49-3.21-7.88-5.68s-4.19-4.25-4-7.84c.14-3-2-3.49-4.51-2.74-2.81.85-4.81.92-7.28-1.81-1.94-2.16-6-2.44-9-3.55-.14-6.47,2.93-9.5,9.3-9.18.33,0,.77.19,1,0,6.76-5.05,17.15-3.16,22.2-11.6.51-.86,1.87-1.28,2.9-1.76,2.09-1,4.16-.5,5.24,1.38,1.22,2.14-1,4-2.29,4.22-6.72,1.13-5,4.31-2.39,8a12.3,12.3,0,0,1,1.08,2.75L308,370a2.38,2.38,0,0,1-.28,2.34c-1.84,2.82-2.73,5.6-.33,8.62A2.23,2.23,0,0,1,307.2,383.77Z" transform="translate(0 0)"/><path class="cls-31" d="M208.77,259.5c.87-.95,2.6,0,3-2.1-4.66-.7-9-1.76-13.24,2-2.87,2.53-7.39,2.19-10.65,5.14.28-6.7,2.85-8.67,11.46-10.44s17.3-1.38,25.94,0c.49.08,1.14,0,1.43.29,5.35,5.13,12.92,5.28,19.2,8.46s13.33,5.25,19,8.66c5.08,3.07,11.73,2.41,15.52,7.83-10,4.58-20.8-.39-30.83,2.92-.49-1.87.46-2.15,1-2.72,1-1.09,3.68-1.1,2.9-3.31-.65-1.82-2.53-2.55-4.54-2.36-4.33.41-7.42-1.05-8.71-5.49-.54-1.85-1.87-2.6-3.84-2.33-4.29.6-8.22-.77-11.77-2.91-3.05-1.84-6.45-.67-9.52-1.75C213.07,260.73,210.66,261.53,208.77,259.5Z" transform="translate(0 0)"/><path class="cls-32" d="M518.82,627c-1.53-1.78-5.05-1.43-5.5-3.81A118.22,118.22,0,0,1,512,609c-.1-1.5.78-2.28,2.19-1.22,1.84,1.37,2.94-.19,3.8-1.1,3.86-4.09,4.5-17.21,1.2-21.85A4.84,4.84,0,0,0,518,584c0-.15-.18-.43-.14-.45,5.2-3.28,9.4-8,15.06-10.61,1.38,1.3,2.29,2.5,1.35,4.71-1.1,2.6-.11,4.87,2.5,6.25-.75,10-3.5,19.38-9.54,27.49C523.62,616.2,523.43,622.76,518.82,627Z" transform="translate(0 0)"/><path class="cls-33" d="M467.86,115.15c9.16-7.79,21.45-7.84,30.83-.14,8.26,6.79,10,19.76,4,30.23-2.13-1.85-4.18-3.79-6.4-5.52a5.61,5.61,0,0,1-2.34-5.07c.14-9.61-5.36-14.3-14.55-12.3a4.79,4.79,0,0,1-4.91-1.16C472.28,119.15,470.06,117.16,467.86,115.15Z" transform="translate(0 0)"/><path class="cls-34" d="M297.58,293.54c-1.2-2.09-3.78-3.08-3.74-6.15,0-3.31-3.75-2.47-5.63-3.86a4.05,4.05,0,0,1,5.22-1.71c4.53,2.79,9.07.82,13.58.79,5.14,0,10,.51,13.49,5a6.22,6.22,0,0,0,5.63,2.57c2.17-.24,3.78,1,5.41,2.16,1.19.86,2.21,1.93,1,3.23-.7.76-1.24,1.78-3.35.86-3.4-1.49-7.55-2.77-11.32.13a3.12,3.12,0,0,1-2.82.33c-3.39-2.19-4.92-.38-6.33,2.45-1.15,2.32-2.6,3.47-4.53.49-1.24-1.91-3.16-3.5-5.43-2.73-4.72,1.6-9.53-1.37-14.19.64-1.59.68-2.64-1.15-4.08-1.46-1.1-.24-1.85-.88-1.34-2.11s1.44-1.08,2.51-.84c2.42.55,4.86,1,7.31,1.46C291.93,295.35,294.82,295.34,297.58,293.54Z" transform="translate(0 0)"/><path class="cls-35" d="M400.93,409c2,.06,3.19-.59,4.18-2.65,1.9-4,3.71-3.94,6.35-.7,1.11,1.36,2.8,3,4.55,1.42,1.93-1.78-.5-2.84-1.46-3.94-1.29-1.5-2.59-3.25-4.28-4.11-1.87-.95-4.4-3.21-6.19.22-.73,1.38-1,3-3.07,2.2-1.62-.6-3-1.47-3-3.5,0-1.66,0-3.32,0-5,3.2-2.44,7.4-4.76,9-5,9.6.73,16,5.82,19.74,14.51a5.54,5.54,0,0,0,2.28,2.52c-1.83,3.78-3.7,6.68-9.06,5.19-2.95-.81-6.51.47-9.78.92a1.68,1.68,0,0,0-1.52,2.12c.24,2-1,3.41-2.79,3.31a3.78,3.78,0,0,1-3.88-3.77A19.29,19.29,0,0,0,400.93,409Z" transform="translate(0 0)"/><path class="cls-36" d="M281.15,121.24c2.93-12,.78-23-6.27-33.12,1.69.79,3.28,1.34,4.95-.26,1.05-1,2.42-1.75,4-.89l-3.37,4.63c1.44.66,1.95-.49,2.59-1.11,6.9-6.72,15.21-8,24.31-6.48,2.14.37,5.17.5,5,2.88-.15,1.85-3.17,2.29-5.37,2.09a7.14,7.14,0,0,1-2.61-1.31c-1.87-1.58-3.7-1.62-4.71,1a2.88,2.88,0,0,1-2.9,2.22c-1.71,0-3.51,0-3.74,2.28a5.21,5.21,0,0,0,2.33,4.71c1.33,1,3.13,1.14,4.51,2.05s3.29,1.78,3.06,4.07c-4.86.71-9.42,2.46-14,4.06-2.73,1-5.1,6-3.16,8,5.19,5.22-.46,4.1-2.65,5A7.66,7.66,0,0,1,281.15,121.24Z" transform="translate(0 0)"/><path class="cls-37" d="M373.24,59.92c6.41-6.42,14.24-7.66,22.48-5.17,9.55,2.88,14.31,10.16,15.83,19.76.18,1.14.17,2.32.24,3.48-5.68-3.26-11.78-5.6-17-9.88-4.07-3.32-10.29-3-15.1-5.61A55.33,55.33,0,0,0,373.24,59.92Z" transform="translate(0 0)"/><path class="cls-38" d="M302.93,104c-1.87-1.87-3.66-3.53-6.55-4.1-3.48-.69-5.81-5.24-4.68-8.07a5.66,5.66,0,0,1,1.3-2c5,2.15,5.23-5.15,9.39-4.74,2.55.25,3.14,2.52,4.6,3.9-.16.26-.31.53-.46.79,4.71-.93,5.21,3.55,7.51,5.77,1.53,1.48,2.73,3.94,5.66,1,.78-.79,4.91.63,7.55.68.34,0,1,.57.94.78-.26,1.47-1.6,3.51,1.62,3,1.8-.3,4.15,1,5-2.33.59-2.34,2.28-4.11,3.86-.19.58,1.44,3.05.07,3.74,2.57l-12.47,4c-4.42-2.22-9.4-.34-13.91-1.91.39-1.17.78-2.34,1.38-4.12C312.65,102,307.2,101.1,302.93,104Z" transform="translate(0 0)"/><path class="cls-39" d="M474,421.71c0,1.81-.42,3.74,1.43,5,1.06.72,1.72,1.62,1.32,2.92-.58,1.89-1.9.43-2.87.57-2,.29-3.91.82-1.11,2.89,2,1.47,0,2.22-.45,3.2-.79,1.56-1.77,1.79-3,.35-3.45-3.95-2.58,2.18-4.67,2-2.67-.19-.5-6-4.18-3.8-4.83,2.92-5.87-2.29-8.73-3.43-1.13-.46.09-1.7.89-2.23,2.54-1.66,4.73-3.52,5.71-6.6.46-1.43,2.19-2.22,3.21-1.11,4.27,4.66,7.23,1.39,10.36-1.39C472.92,420.19,473.46,421,474,421.71Z" transform="translate(0 0)"/><path class="cls-40" d="M406.94,388a10.81,10.81,0,0,1-9,5l-1-1c-1.16.65-2,.63-2-1-3.41-2.6-3.39-7.67-7.2-10-.12-.08-.29-.31-.25-.4,1.74-4.25-1.18-8.31-.53-12.51l4.46-.2c-.43,2-3.57.5-3,2.59a6.43,6.43,0,0,0,4.16,4.49c2.25.75,4.56,1.31,6.83,2C404.84,378.66,406,383.28,406.94,388Z" transform="translate(0 0)"/><path class="cls-41" d="M245,37c1.48-3.48,5.23-2.5,7.2-2.3,6.74.66,13.3-1.41,19.95-.59a38.28,38.28,0,0,1,11.2,3.32c.75.35,2.63.15,1.9,2.11a2.41,2.41,0,0,1-2.12,1.65C269.94,43.86,257.32,41.83,245,37Z" transform="translate(0 0)"/><path class="cls-42" d="M303.19,37.88c13.63,3.32,27.41,6.12,40.64,11-1,.44-1.88.66-.1,1.53a63.1,63.1,0,0,1,12.59,7.81c-7.3-2.16-14.68-4.12-21.89-6.54C323.56,48,312.79,44,302,40.14c-1.63-.58-3.71-.58-4.14-2.89C299.86,35.46,301.56,36.35,303.19,37.88Z" transform="translate(0 0)"/><path class="cls-43" d="M187.12,381c4.78-.64,5.14-5.7,8.13-8.14l7.72,7.23c-4.49,1-5.19,2.8-2.28,6.09,2.06,2.31,4.23,4.53,6.35,6.79-2.34.51-4.66-1.89-7.14.2-.93.8-1.66-.72-1.88-1.62a5.23,5.23,0,0,0-2.63-3.27c-1.6.75,1.34,2.36-.69,2.69-1.25.21-2.73-.82-2.31-1.94C194.39,383.69,189.56,383.16,187.12,381Z" transform="translate(0 0)"/><path class="cls-44" d="M342,87.08c-1.37-1.93-1.17-4.15-.79-6.22a3,3,0,0,1,3.89-2.73c2.89.45,1.66,2.27,1.52,3.73a20.53,20.53,0,0,1-.63,2.63c2.49-.62,4.4-1.5,6,1.39.75,1.34,3.46,1.86,5.8,1.82s5.76-.62,6.1,3.45c0,1.91-1.44,1.62-2.43,1.31a16.72,16.72,0,0,0-8.8.1C347.42,93.75,344.15,91.67,342,87.08Z" transform="translate(0 0)"/><path class="cls-45" d="M342,87.08c.16.06.37.08.45.19,4,5.3,9.34,5,14.68,3.08,2.64-.93,4.32,2.67,6.78.8,2.51.7,5.67.89,4,5l.06-.06c-2.37.52-4.4,2.27-7,2-.61-1.41,1.36-1.22,1.23-2.23-6.2-1.47-12.58-1.47-18.89-2.12C337.84,93.18,342.47,89.35,342,87.08Z" transform="translate(0 0)"/><path class="cls-46" d="M316,103.08c4.81-.63,9.71-1.88,13.91,1.91-3.75.55-7.61.5-10.12,4.42a3.58,3.58,0,0,1-5.23.9c-1.15-.88-2.73-1.27-2.68-3.15C312,104.47,313.77,103.57,316,103.08Z" transform="translate(0 0)"/><path class="cls-47" d="M262.07,299.71c-6.69,0-13.51,2.7-18.55-3.74C249.06,293.26,257.81,294.84,262.07,299.71Z" transform="translate(0 0)"/><path class="cls-48" d="M350.05,299.94c-1.75,0-3.06,0-4.38,0-2-.07-1.69-1.75-1.92-2.92-.32-1.58.81-2,2.09-1.91,3.11.25,6.23.47,9.31,1,2.13.35,1.56,1.57.51,2.77C353.93,300.82,351.67,299.76,350.05,299.94Z" transform="translate(0 0)"/><path class="cls-49" d="M303.19,37.88l-5.34-.63c-2.15-.32-4.5,0-6.1-2,1.6-.68,3.09,1.5,4.73.19.13-2-2.58-.71-2.51-2.77,5.59.27,11,1.88,17.45,3.43C308.16,37.71,304.89,34.26,303.19,37.88Z" transform="translate(0 0)"/><path class="cls-50" d="M425,85.09c1.45-1.79-3.25-2.11-1-3.71,1.35-1,3.36,0,4.49,1,2.17,2,5.93,3.41,3.66,7.59C429.49,88.63,426.87,87.36,425,85.09Z" transform="translate(0 0)"/><path class="cls-51" d="M397.63,373.58c4.11-.65-2.4-7.34,3.77-6.36,2.52.4,1.5,3,1.43,4.54C402.68,375.28,399.84,373.64,397.63,373.58Z" transform="translate(0 0)"/><path class="cls-52" d="M367.93,96.11c1.05.14,1.49-2.43,3-.54,1.17,1.45,3.55,1.82,3.46,4.42,0,1.09-.86,1.19-1.12,1-1.9-1.49-5.79-.9-5.3-4.93Z" transform="translate(0 0)"/><path class="cls-53" d="M496.07,467.16c-3.1,3.09-6.12.95-9.16-.15.95-2.87,4.82-1.36,5.95-4Z" transform="translate(0 0)"/><path class="cls-54" d="M245,243c-4.38-2.3-4.38-2.3-1.2-7,1.23,2.37,4.49,4,1.14,7.05Z" transform="translate(0 0)"/><path class="cls-55" d="M492.86,463c.07,4.41-4.39,2-5.95,4h0c-1.59-2.33.7-4,1-6.06l0,.07,2.31.38C488.56,466.05,492.06,462.37,492.86,463Z" transform="translate(0 0)"/><path class="cls-56" d="M313.74,82.51a18.49,18.49,0,0,1,10.55,3.25C319.91,85.16,316.37,85,313.74,82.51Z" transform="translate(0 0)"/><path class="cls-57" d="M202.07,267.53c-1.54.31-2.07-.33-2.06-1.51s-.35-2.53,1.34-2.56a2.61,2.61,0,0,1,2.47,2C204.34,267.22,202.6,267,202.07,267.53Z" transform="translate(0 0)"/><path class="cls-19" d="M260.86,388.69c.56,2.21,3.1,4.66-.79,6.31a21.78,21.78,0,0,0-1-4.08C257.94,388.62,259.94,389.16,260.86,388.69Z" transform="translate(0 0)"/><path class="cls-16" d="M483,436.91q-1.51-4.86-3-9.71C483.76,429.56,482.78,433.42,483,436.91Z" transform="translate(0 0)"/><path class="cls-30" d="M270.72,380.89c1,.52,2.4,1.07,1.69,2.4-.61,1.14-2,.88-3,.1A4.51,4.51,0,0,0,267,382C268,380.81,269.49,381.31,270.72,380.89Z" transform="translate(0 0)"/><path class="cls-54" d="M245,243.08c1-.16,2-.31,2.73.59s1.44,1.9.91,3.13a2.29,2.29,0,0,1-1.05.79A8.29,8.29,0,0,1,245,243Z" transform="translate(0 0)"/><path class="cls-24" d="M510.18,642.07c-1.83-3.39-1.59-4.07,1.77-5.06Z" transform="translate(0 0)"/><path class="cls-58" d="M290.2,269.69c-1.28,2.53-2.91,3.24-4.75,2.87-1.5-.3-.67-1.56,1.67-2.13Z" transform="translate(0 0)"/><path class="cls-59" d="M238.25,223.56c2-2.37,4.15-1.29,6.23-.84C242.48,222.87,240.73,224.83,238.25,223.56Z" transform="translate(0 0)"/><path class="cls-49" d="M283.8,34.23c2.49-.14,5.06-1,7.28,1C288.45,36.4,286.21,34.7,283.8,34.23Z" transform="translate(0 0)"/><path class="cls-60" d="M467.77,663.94q-1.38,4.88-2.75,9.73a5.35,5.35,0,0,1-1.82,2.15c-4.95,1.89-4.95,1.89-10.4-5.35.54,1.66,0,3.18-.34,4.75-.39,2,2.83,2.67,2.4,4a57.17,57.17,0,0,0-2.35,9.42c-.38,2.46-.63,4.91-.77,7.38a3.74,3.74,0,0,1-1.48,2.51c-6.08,3.78-10.48,9.51-16.14,13.78a3.79,3.79,0,0,1-3.48-1.25c-1.65,5.34-7.41,7.51-9.79,12.36-2.87,3.37-4.72,7.81-9.54,9.16-5.47.69-10.15-1.3-14.59-4.23a2.14,2.14,0,0,1-1.05-2.47c1-6,7.46-11.26,14.07-11.38a3.3,3.3,0,0,0,3.45-2.93c.09-2.23-2.22-2.45-3.71-2.08-3.88,1-7.44,2.61-9.89,6.13-1.41,2-2.44,4.91-5.88,4.29a8.79,8.79,0,0,1-.46-5.85c.67-2.61.67-4.63-1.26-6.85s0-4.27,1.54-6.06c1.16-1.36,2.92-2.58,1.8-4.71s-3-1.68-4.83-1.21-3-.09-2.69-2.21a4.56,4.56,0,0,0-.94-3.66c-4.94-6.92-10.41-13.32-17.3-18.4a4.92,4.92,0,0,0-4.68-.92,22.81,22.81,0,0,1-3.35.94c-6.05.94-8.28-1.55-6.65-7.57a64.87,64.87,0,0,0-8.83,1.51c-4.32,1.07-6.34.33-6.69-4-.83-10.42-7.66-16.55-14.9-22.5-6.25-5.15-12.33-10.32-20.13-13.49-6.28-2.55-11.68-.5-17.47.3-9-2.9-16.82-7.54-22.88-14.87-1.72-2.08-3.95-4.24-1.6-7.37a2,2,0,0,0-.09-1.85c-3.84-5.3-6.91-11.07-10.45-16.53a11.11,11.11,0,0,1-2-5.31c1.63-1.34,1.71-1.45,2.57-.8,2.8,2.1,5.9,4.3,7.08,7.54,2.26,6.24,6.76,11.5,7.78,18.24.28,1.83,1.13,3.09,3.14,3.26s3.1-.83,3.51-2.72c.6-2.8,2.6-4.12,5.14-4.83a7.15,7.15,0,0,0,3.69-2.35c2.7-3.18,5.37-3,7.94.45,2.18,2.95,3.46,6.41,4.85,9.9,1-1.22,1.44-2.63,2.4-3.77,4.4-5.24,4.17-7.74-.92-12.66-3.82-3.69-4.09-6.42.12-8.73A72.45,72.45,0,0,0,310,574c1.3-1.24,2.4-2.87,4.51-1,11.4,10.1,24.26,18.27,36.43,27.35,4.82,3.59,8.22,7.66,4.87,14.19-1.68,3.26,2.79,4.49,2.9,7.86.12,3.74,3.81,2.91,6.95,2,5.23-1.6,11.35,1.71,13.5,6.62.77,1.78,2,3.5,4.13,2.68,6-2.32,11.55,1.29,17.41,1.28,4.95,0,9.06,2.65,13.38,5.5,3.84,2.53,8.89,5,14.25,4.54,5.91-.47,10.18,2.19,13.26,7,1.84,2.91,4.15,4.76,7.84,3.65,3.23-1,5.26,1.23,7.52,2.81C460.3,660.8,463.21,664,467.77,663.94Z" transform="translate(0 0)"/><path class="cls-61" d="M286.87,625.22c4.59-3.74,10-3.84,15.25-2.53,7.29,1.83,13.4,6.23,19,11.09,6.09,5.29,12.73,10,16.92,17.38a16.38,16.38,0,0,1,2,7.41c.4,5.48,1.37,5.8,6.46,4.83,3.8-.73,7.68-2.15,11.63-1.21.73,1.82-.77,1.6-1.5,2a3,3,0,0,0-1.4,3.86c.47,1.5,1.75,1.87,3.18,1.87a5.24,5.24,0,0,0,2,0c11.07-5.09,15.13,4.89,20.75,10.32,2.3,2.22,5.09,4.7,6.76,8.13,1.12,2.29,1.91,3.75.4,5.83,1.87.87,2.37-.75,3.41-1,2.37-.64,3.8.55,5,2.32s1.19,3.22-.53,4.79c-2.71,2.48-6.68,5-1,8.59.42.26.8,1.49.58,1.75-2.39,2.81-.7,6.35-1.79,9.36.48,2.18-1.21,3-2.53,4-5,1.59-7.62,6.68-12.43,8.66-1.15.48-1.29,2.24-1.59,3.51a18.87,18.87,0,0,1-7.84,11.6c-1.55,1.16-2.83,2.79-5,2.88-3.42-.31-6.26-2-7.45-5.08-2.11-5.47-7-7.69-11.23-10.81-.4-.3-1-.38-1.31-.71-5.46-5.11-10.19-4.74-14.61,1.51a3.94,3.94,0,0,1-5.83.62c-1.83-1.5-.55-3.28.21-4.95,3.13-6.85,1-11.67-6.29-14.11-2-.68-3.2-1.79-3.25-3.84-.09-3.78-2.1-6.64-4.46-9.21-2.85-3.12-4.45-6.44-3.74-10.8a13.3,13.3,0,0,0-.83-6.36c.76-4.18,1.31-8.43,4.06-11.94,3-10.27,3-20.81,2.95-31.37a3.32,3.32,0,0,0-1.41-2.82c-7.16-6.24-14.73-11.75-23.8-14.89C287.33,625.75,287.11,625.44,286.87,625.22Z" transform="translate(0 0)"/><path class="cls-62" d="M310,574c-2.44,4-5.18,7.16-10.3,8.5-5.5,1.45-5.54,4.57-1.22,8.56,4,3.66,6.76,8.38.11,14.14-1,.82-1.75,1.64-1.39,2.92s.26,2.46-1.23,2.66c-2,.26-1.79-1.38-2-2.68-.55-3.53-2.52-6.5-4.27-9.46-1.87-3.15-4.38-3-5.76.15-.86,2-2.29,2-4,2.27-2.56.39-5.09,1.2-4.91,4.49.21,3.6-2.05,3.45-4.52,3.47-2.68,0-3.91-.76-4.65-3.76-2.39-9.65-6.09-18.75-13.76-25.64-.67-.61-1.34-1.72-2.3-.3-5.14-5.33-5.94-12.93-9.78-18.86-5.71-8.8-8.65-19.91-19.84-24.4-1.31-.53-6.29-1.75-1.4-5,.82-.53.28-1.85-.2-2.76-5.32-10-3.55-14.89,7.43-20.35,1.52,1.51,2.71,3.41,4.73,4.36,16.72,7.88,28.84,21.58,42.34,33.53a45.82,45.82,0,0,0,11.86,8c-1-4.63-2.22-8.61-1.64-12.8a5.33,5.33,0,0,0-1.36-3.66,39.18,39.18,0,0,1-2.74-3.55c-4.57-8.38-10.2-16.11-15-24.34-2.16-3.74-4-6.91-8.19-8.75-5.53-2.44-10.56-5.76-12-12.35-.29-1.29-1.3-3-.48-3.82,3.25-3.44,1.78-7.7,2.48-11.56,1.87,1.5,3.45,3.11,6.27,3.36,4.56.4,7.67,3.7,10.53,7,1.74,2,1.53,4-1.18,4.39s-5.71,2.34-8.67.26c-.85-.6-1.89-.79-2.56.39a2.16,2.16,0,0,0,.39,2.75c2.36,2.31,4.14,5.55,7.33,6.61,4.22,1.4,6.55,4.22,8.29,8,2.79,6.08,8.62,9.48,13,14.18a16.84,16.84,0,0,1,4.4,8.15,36.91,36.91,0,0,0,10.83,19.09c3.89,3.8,7.47,7.92,11.35,11.75S312,568.08,310,574Z" transform="translate(0 0)"/><path class="cls-63" d="M246,473c.89,3.84,2.79,7.1-1,11.33-2.15,2.38,1.42,7.2,3.66,10.44.26.37.84.52,1.28.77,7.62,4.28,13.06,9.91,18.12,17.65s8,17.41,15.31,23.91a4.48,4.48,0,0,1,1.37,5c-1.34,2.94.52,5.5.6,8.25,0,1.69,2.7,3.44.95,4.92-2,1.72-3.51-1-5.09-1.89-8.09-4.49-13.66-12-20.86-17.63-9.62-7.48-17.44-17.3-29.26-21.93-2.34-.92-5.55-2.12-5.06-5.92a7,7,0,0,0,3.59-6.6c-2.21.24-2,3.18-4.3,3.27-1.09-.73.33-2.55-1.18-3.24-7.43-3.39-2.27-10.83-5-15.76-.12-.23.34-1.11.66-1.19,3-.74,2.65-3.38,3.7-5.46,1.88-3.69,4.71-6.38,4.31-11.41-.16-2,5.6-3.16,9-3.81C239.34,467.41,243.78,469.11,246,473Z" transform="translate(0 0)"/><path class="cls-64" d="M121.67,481.07c-.09,1.8-1.27,2.4-2.56,2.79s-2.49.4-3.25-.59c-1-1.37.3-2,1.21-2.68.74-.53,2.05-.75.88-2-.5-.57-1-1.49-1.86-.42-.69.86-1.41.85-2,.05-.77-1,0-1.5.77-1.84,1.43-.61.6-1.46.48-2.41-.19-1.43,1.11-1.79,1.75-.85C118.79,475.65,120.19,478.46,121.67,481.07Z" transform="translate(0 0)"/><path class="cls-65" d="M126,481.64c-.9-.1-1.63-.58-1.65-1.47s.83-1.31,1.7-1.34,1.7.38,1.62,1.35A1.6,1.6,0,0,1,126,481.64Z" transform="translate(0 0)"/><path class="cls-66" d="M140.94,36.92c.78,1.39-.81,2.68.28,4.38,5.89,9.22,6.52,19.23,3.76,29.61a39.21,39.21,0,0,1-13.31,16.94c-7.14,6-15.38,6.18-23.82,4.16S92.64,85,87.71,77.7c-.93-1.36-1.8-2.82-1-4.6a45.89,45.89,0,0,1-3-21c3.66-14.76,12.18-24.43,27.92-26.21,9.06-1,16.88,2.05,23.67,8.06C136.87,35.33,138,38,140.94,36.92Z" transform="translate(0 0)"/><path class="cls-67" d="M248.31,30c-4.72-.33-9.55,1.29-14.17-.82C238.88,29.16,243.67,28.3,248.31,30Z" transform="translate(0 0)"/><path class="cls-1" d="M463,675l2-1.31c-1.07,19,11.38,34,27.48,37.58,6.18,1.39,12.19.55,18.24-.52-2.89,6-8.54,9.46-12.8,14.21a7.81,7.81,0,0,1-5.16,4.88l-12.94,11.07a82.86,82.86,0,0,0-10.53,6.6c-5.32,4.09-11.43,6.7-17.81,8.74-11.21,3.59-22.05,8.45-34,9.56-6.65.63-13.23,1.09-19.77-.84-4-1.19-8.34-.05-12.38-.85-3.78-.75-8.74.36-10.3-5.07,0-3.27,3.9-4.58,3.63-8.68-.19-2.76,0-4.39-2.53-5.59-.42-.2-.6-.76-.75-1.24.16-3.4,2.27-2.88,4.54-2.37,5.84,1.31,11.7,1.92,17.34-.86a81.79,81.79,0,0,0,8.71-5.56,32.27,32.27,0,0,1,5-2.72c4.45-1.61,5.8-6.41,9.26-9a62.17,62.17,0,0,1,13.72-11c4.11-4.89,8.48-9.5,13.93-12.93a7.9,7.9,0,0,0,3.08-3,35.14,35.14,0,0,0,2.71-7.45C455,682.76,457.62,677.93,463,675Z" transform="translate(0 0)"/><path class="cls-3" d="M375.92,757.8c-.19,2.82,1.59,3.67,4,4.12,24.46,4.65,48.25,3.42,71.36-6.95,7.44-3.33,14.9-6.23,21.18-11.64a9.6,9.6,0,0,1,7.41-2.44c-3.06,4.42-8.07,6.6-11.8,10.26a7.39,7.39,0,0,1-2.49,3.05c-6.91,4.86-14.06,9.37-20.92,14.31a5,5,0,0,1-2.78,1c-3.63,1.59-6.76,4-9.94,6.3-5.61,6.14-13.18,9.32-20.33,13-4.8,2.48-9.13,6-14.6,7.12l-3,1c-6.38,1.74-12.67,3.82-19,5.63a102.42,102.42,0,0,1-43.31,2.73c-6.56-1-13.08-2.15-19.64-3.15-2.62-.41-5.39-1.11-5.12-4.81a20.16,20.16,0,0,1,5.57-6.9c2.88-2.17,4.8-4.17,4.46-8-.18-2,1.33-3.3,3.46-3.56a17.71,17.71,0,0,1,4-.14c6.55.72,11.28-2.18,14.56-7.55,1.49-2.43,3.46-3.15,6.11-3.54,8.57-1.26,17-3.15,24.82-7.09,1-.63,1.88-1.39,2.85-2S374.69,757.32,375.92,757.8Z" transform="translate(0 0)"/><path class="cls-68" d="M308,796.89c-1.36,3.15,1.45,3.63,3,3.77,10.55.92,20.8,3.81,31.42,4.32,15.7.76,30.55-3.09,45.36-7.48,2-.59,3.92-2.12,6.12-.6-4.52,3.39-10.21,4.23-15.08,6.84a6.61,6.61,0,0,1-3.63,2.49c-11.29,4.26-22.18,9.6-33.87,12.82-1.44.4-2.94.41-4.35.88L327.14,822a228.38,228.38,0,0,1-36.52.57c-1.54-.08-3.13.87-4.7,1.34-1.86-1.27-4.35.38-6.13-1.31-1.58-1.78-1.6-3.93-1.42-6.12a4.62,4.62,0,0,1,3.62-2.92c3.27-.7,5.86-2.64,8.61-4.31,2.44-1.3,5.29-1.73,7.87-3.62-.81-1.58-4.09-1.38-3.41-3.82s3-3.25,5.25-3.93a25.47,25.47,0,0,0,2.79-1C304.73,796.35,306.36,795.48,308,796.89Z" transform="translate(0 0)"/><path class="cls-69" d="M337,819.93c3.18-2.64,7.32-2.8,11-4.24,10.26-4.05,20.58-8,30.88-12,2.09,4.06,5-.92,7.62.84A16.73,16.73,0,0,1,380,808c-9.52,3.28-19,6.49-28.76,9.18a35,35,0,0,0-8.09,3.48C340.45,822.29,338.92,821.29,337,819.93Z" transform="translate(0 0)"/><path class="cls-70" d="M397,795.94c11.39-7.15,23.78-12.56,34.93-20.12-.07,8.75-8,9.63-13.31,12.89-1.58,1-3.46,1.45-5.11,2.66C408.62,794.94,403.18,797,397,795.94Z" transform="translate(0 0)"/><path class="cls-71" d="M47.05,799.1c7.5,3.75,15.34,6.72,23.15,9.72-10.29,2.83-18.3-3.44-27-6.92-3.1-1.25-6.83-2.09-8.18-5.95l.49-.49c2.52-.89,4.21,1,6.2,1.89C43.48,798.08,44.92,799.58,47.05,799.1Z" transform="translate(0 0)"/><path class="cls-72" d="M441.84,769.52c8.58-6.34,17.13-12.72,26.19-18.37.55,1,1,2,.07,3.15-3.18,4.18-6.41,8.35-12.1,9-4.52.53-6.41,5.51-10.84,6C444.05,769.47,443.06,771.38,441.84,769.52Z" transform="translate(0 0)"/><path class="cls-71" d="M22.22,785.74a7.35,7.35,0,0,1,3.91,2.07c.78,1.77-.65,2.67-1.48,3.8l-.55.31a4.8,4.8,0,0,1-3.69-1.14c-1.71-1.58-5.67-2.26-4.77-4.73,1-2.76,3.5.79,5.45.53C21.5,786.53,21.85,786,22.22,785.74Z" transform="translate(0 0)"/><path class="cls-73" d="M492.77,729.82l5.16-4.88c1.78,2.11,2.69-1.26,4.22-.62C501.11,728.88,498.22,730.59,492.77,729.82Z" transform="translate(0 0)"/><path class="cls-71" d="M35.06,796c-4.53,1-7.53-2.09-11-4h0c3.7-3,8.59-1.26,11,4Z" transform="translate(0 0)"/><path class="cls-74" d="M188.83,839.31c-5.26.53-10.65,1-16-.25C178.17,837.31,183.42,839.67,188.83,839.31Z" transform="translate(0 0)"/><path class="cls-75" d="M308,796.89l-5,1c-2.88-.5-1.71-2.54-1.34-4,.94-3.7,3.53-6.13,6.82-8.06-2.28.28-4.33,1.36-6.6,1.08a2.69,2.69,0,0,1-2.29-1.59c1.22-1.44-.95-2.35-.57-3.66,1.32-1.21,3.15-.53,4.85-1.06-1.33-2.2-4.4-1.06-5.33-3.34-.32-.81-.41-.8-1.1-.09-3.64,3.71-6.95,1.39-10-1-3.26-2.57-4.73-9.62-3-13.5a4.91,4.91,0,0,0,.28-4.28c-1.46-3.21-.82-6.12,1.08-8.9l3.09-8.6c.07-5.6-1.47-11.5,3.9-15.94,1.89-1.56-.42-4,.2-6,5.66-5.09,6.22-12.66,9.12-19.07a42.53,42.53,0,0,0,3.62-13c2.12.85,2.56,2.71,2.13,4.53-1.32,5.64,1.19,9.85,4.79,13.66,2.16,2.27,3.58,4.74,3.28,8-.2,2.16,1,2.65,3,3,7,1,10.57,9.78,6.58,15.81-.78,1.2-2.51,2.41-.66,3.7a3.33,3.33,0,0,0,4.5-.74c.75-.87,1.28-1.94,2.06-2.78,4.06-4.36,5.87-4.23,10.69-.72,2.61,1.9,5.93,2.86,8.44,5,2.87,2.49,6.67,3.91,7.52,8.55.57,3.16,4.07,4,6.87,5.08.52,1,0,1.75-.4,2.57-.33,1.73-3.43,3.46.06,5.15,1.53.87,3.21.57,4.84.73s2.54.88,1.54,2.63c-6.89,4.71-15,6.62-22.88,7.31-5.52.49-8.44,3.15-10.76,6.61-3.08,4.61-7.37,4.69-11.84,5.1-1.15.1-2.32-.11-3.48-.11-4.19,0-5.18,1.13-3.63,5.09.68,1.71-.29,3.25-.81,3.38C312.9,789.6,311.64,794.59,308,796.89Z" transform="translate(0 0)"/><path class="cls-76" d="M285.88,749.53c-.75,3.41-1.42,6.76.79,10a3.12,3.12,0,0,1-.28,3.3c-3.09,5.23-.4,13,5.37,14.7,1.43.43,5,2.68,4.54-2.14-.1-1,.29-1.79,1.2-1.83s2.38.45,2.08,1.56c-.85,3.12,1.15,2.79,3,2.82s3.81.7,3.69,2.47c-.19,2.7-2.54,1.74-4.28,1.55a29.62,29.62,0,0,0-3,0c-5.53,4-10.56,8.23-12.23,15.39a9,9,0,0,1-5.57,6.06c-3.55,1.53-6.21,4.46-9.5,6.42-2.27,1.35-1.16,4.08-2.74,5.78a2.94,2.94,0,0,0,2.11-1.14c4.19-7.72,11.94-3.54,17.85-5.41a2.12,2.12,0,0,1,2.19.93c-2.94,4.47-9,3.37-12.42,7-1.1,2.06-1.46,3.92,1.34,4.92,1.69,1.46,4.34.1,5.89,2-7.3.32-14.41,3-21.83,1.82-4-4.75-9.61-5.15-15.14-5.81-1.13-2.55-2.31-5.09-2.08-8,.39-1.23.73-2.57,2.27-2.81,1.23-.2,3.16.21,3.24-1.29s-1.92-1.68-3.2-2.13c2-1,4.14-1.94,6.15-3,1.59-.86,1.94-2.14.84-3.69,1.6-.55,2.55-3,4.74-1.77,1.75,1,.39,2.64.69,4.49,3.86-4.66,5.9-9.77,8.45-15.56-3.54,1.5-6.3,2.17-6.72,6.17-.23,2.23-2.62,1.9-4.82,1.39a10,10,0,0,0,1.72-5.67c.72-.43,2.71.71,2-1.48a3.19,3.19,0,0,1,1.89-4.08c5.21-2.31,6.1-6.73,4.24-11-1.7-3.91,1.08-4.11,2.76-5.54C275.22,759.74,281.3,755.31,285.88,749.53Z" transform="translate(0 0)"/><path class="cls-2" d="M35.11,795.89c-3.21-2.61-5.83-6.87-11-4-.13-1.78,1.51-2.67,2-4.12L47.05,799.1c-1.51,2.54-3,.52-4.3-.16C40.29,797.65,38.09,795.84,35.11,795.89Z" transform="translate(0 0)"/><path class="cls-6" d="M172,705.94c-3.9-.74-5.56-4-7.23-6.93-5.33-9.21-9.89-18.89-17.45-26.64-.28-.29-.21-.94-.31-1.42,8.1,5.71,12,14.55,16.74,22.74A81.56,81.56,0,0,0,172,705.94Z" transform="translate(0 0)"/><path class="cls-6" d="M210,753.93c-5.21-.75-6.36-5.86-9.23-9-4.15-4.51-8.85-8.82-10.76-15C197.31,737.42,203.32,746,210,753.93Z" transform="translate(0 0)"/><path class="cls-6" d="M90.07,607c-6-.88-7.86-6.83-12-10C83.33,598.79,86.11,603.58,90.07,607Z" transform="translate(0 0)"/><path class="cls-6" d="M234,775.92c-4.87-1.29-7.58-5-10-9C228,769.26,230.69,772.92,234,775.92Z" transform="translate(0 0)"/><path class="cls-6" d="M115.06,637c-2.74-3.27-6.89-5.76-6-11C109.77,630.33,114.57,632.47,115.06,637Z" transform="translate(0 0)"/><path class="cls-6" d="M61.08,579c-3.29-1.83-4.65-5.35-7-8C58.16,572.11,59.44,575.69,61.08,579Z" transform="translate(0 0)"/><path class="cls-6" d="M242,780.92c-3.72,0-6.13-2.06-8-5C237.2,776.77,239.54,779,242,780.92Z" transform="translate(0 0)"/><path class="cls-6" d="M69.08,587c-2.2-2.47-6-3.3-7-7C64.65,582.06,68.41,583,69.08,587Z" transform="translate(0 0)"/><path class="cls-6" d="M224,766.93c-3.41-.74-5-3.59-7-6C220.44,761.66,222.05,764.51,224,766.93Z" transform="translate(0 0)"/><path class="cls-6" d="M78.07,597c-2.41-2-5.26-3.58-6-7C74.49,591.94,77.34,593.55,78.07,597Z" transform="translate(0 0)"/><path class="cls-6" d="M132.06,656c-2.42-2-5.27-3.58-6-7C128.47,650.93,131.32,652.54,132.06,656Z" transform="translate(0 0)"/><path class="cls-6" d="M35.09,546c-3.82.51-5.51-1.52-6-5C31.09,542.64,32.49,545,35.09,546Z" transform="translate(0 0)"/><path class="cls-6" d="M104.07,624c-3.16-.76-3-4.24-5-6C102.67,618.34,102.51,621.87,104.07,624Z" transform="translate(0 0)"/><path class="cls-77" d="M249,819.9c3.39-1.22,6.94.12,10.44-.75,1.86-.46-1,4,2.42,3.6,2.42-.31,1.41,2.06,2.28,3-5-.58-10-.49-14.81-2.47-2.3-.94-1.15-2.18-1.4-3.36Z" transform="translate(0 0)"/><path class="cls-1" d="M564.9,160.57c-.08,7.52-7.26,14.52-14.87,14.47A13.34,13.34,0,0,1,537,161.54c.16-7.11,7.67-14.39,14.68-14.24A13.32,13.32,0,0,1,564.9,160.57Z" transform="translate(0 0)"/><path class="cls-78" d="M532.91,572.93c-4.32,4.57-9,8.68-14.92,11.06-15.48,5.34-30,1.49-40.77-10.77a10.46,10.46,0,0,0-1.56-1.21c-5.13-7.91-7.64-16.48-6.43-26,5.43-24.53,28.11-32,45.49-26.11,21.07,7.14,30.22,29,20.22,49C534.28,570.28,533.59,571.6,532.91,572.93Z" transform="translate(0 0)"/><path class="cls-79" d="M349,411c-1.05-1.47-2.63-.86-4-1a2.59,2.59,0,0,1,2.66-1c2.93.36,3.32-1.46,2.07-3.16-3-4.06,1.39-7.42.67-11.22-.13-.7.94-1.44,1.83-1.25,1.1.24,1.43,1.07,1.43,2.24,0,11.1,6.89,19.89,17.57,22.38,2.33.54,2.36,2.1,2.88,3.94,1,3.53,1.21,7.8,5.88,9-.4.51-.7,1.18-1.21,1.49-5,2.9-5.14,5-.78,9.53.89.38,1.5.91,1,2-1.13,5.29-2.17,5.74-6,2.5a4.62,4.62,0,0,0-3-1.5c.28-5-5.62-7.44-5.09-12.71.29-2.89.3-5.28,4.06-5.52,1-.07,2-1.15,2.92-1.81a2,2,0,0,0,.67-3c-.93-1.17-1.71-.05-2.35.66-2.19,2.4-3.71,1.55-4.85-1-2.5-5.58-5.83-9.8-12.92-8.82C351.37,412.92,350.13,411.63,349,411Z" transform="translate(0 0)"/><path class="cls-19" d="M293.18,401.47c-2.86-.7-5.37-4.89-7.09-1-1.37,3.15-7.33,6.47-1.31,10.81,2.49,1.79,3.9,4.49,4.94,7.32.48,1.3.48,2.65-1.06,3.42-1.83.91-2.35-.32-2.7-1.72-.77-3.13-3.77-2.22-5.73-3.06-2.27-1-3.89-1.56-2.46-4.58,1.58-3.35-.33-5.91-3-7.58-2.94-1.79-4.88-1.88-.75-5.76,3.61-3.39,8.76-1.85,11.45-5.85.58-.85,2.11,0,2.61.67C289.63,396.4,292.3,397.86,293.18,401.47Z" transform="translate(0 0)"/><path class="cls-80" d="M334,470c0-1.34,0-2.67,0-4,2-3,4-6,6-9.07,1-1.49,1.56-3.26-.17-4.48-5.17-3.64-5.76-10.44-10.26-14.6-1.26-1.16-3.24-3.22-.77-5.52,1-.93,2.06-2.46,3.2-1.48,1.88,1.61,4.74,2.75,4.52,6a17.65,17.65,0,0,1-.64,2.45c4.31-1.27,6.13.38,6.26,4.42a7.22,7.22,0,0,0,1.55,3.63c3.61,5-.75,10.13.16,15.18.12.67-.72,1.47-1.26,1.22-3.49-1.6-3.81,2-5.55,3.25,0,1,0,2,0,3C336,471.59,335,471.74,334,470Z" transform="translate(0 0)"/><path class="cls-81" d="M457.94,554c-2.19.1-5.1-1.94-6,2a7.57,7.57,0,0,0-2.24,4.24c-.61,2.33-2.4,3.74-4.82,3.13s-2.09-2.94-1.86-4.88A11,11,0,0,1,445,554c1.46-2.15-.11-5.58,3-7a3,3,0,0,0,2.94-2.15c.94-2.27,1.76-5.55,4.52-1.12,1,1.53,2,.21,2.88-.34a31.62,31.62,0,0,1,3.82-2.19,2.49,2.49,0,0,1,2.77.51c1,1.07-.06,1.69-.57,2.47C462.17,547.4,460.06,550.69,457.94,554Z" transform="translate(0 0)"/><path class="cls-82" d="M418,467c.13-1.94,3.26-4.64-1.46-5.35a1.87,1.87,0,0,1-1.37-2.34c.36-1.54,1.8-2,3-2.13,3-.24,4.07-1.79,3.72-4.61-.17-1.35-1.21-3.43,1.4-3.1,1.59.2,3.42,2.2,2.31,3.63-2.11,2.73.22,4.66.38,6.93-1.14,3.82-3.93,7.12-3.21,11.55.24,1.49-1.22,2.66-2.68,3.16a3,3,0,0,1-2.3-.2c-.95-.59,0-1.35.14-2.08C418.37,470.65,421.68,468.79,418,467Z" transform="translate(0 0)"/><path class="cls-53" d="M487.93,461c-.33,2-.67,4-1,6.06-2-.4-2.59,1.43-4.07,2.21C483.11,465.61,486.44,463.81,487.93,461Z" transform="translate(0 0)"/><path class="cls-83" d="M405,630c-3.79,1-6.47-.72-9.94-2.18-4.5-1.89-8.44-5-12.71-6.3-4.08-1.19-9.47-2.71-14.19.74-2.25,1.65-5.31.22-7.29-1.32s-2.38-4.32.66-5.5c4.31-1.65,7.08-4.78,9.49-8.43,1.35-6.92,2.51-7.53,9.25-4.8l.93.33c6.09,2.23,6.09,2.23,2.32,7.66-.29.41-.44.89-.79,1.42,1.17-.85,2.06-1.82,3.05-2.66a33.63,33.63,0,0,0,2.87-3.43c2.34-2.58,12.08-3.65,14.91-1.68,2.6,1.81,2.65,5.39-.2,6.85a32.84,32.84,0,0,0-6.39,4.64c-.71.61-2.16.79-1.86,2,.35,1.43,1.82,1.79,3.1,2.14a4.64,4.64,0,0,0,2.89-.48,2.9,2.9,0,0,1,2.84,0C406.24,620.48,406.92,627.49,405,630Z" transform="translate(0 0)"/><path class="cls-84" d="M405,630c2.73-3.84-1.55-6.71-1.47-10.21,0-.56-1.24-.54-1.64,0-2.38,3.3-4.49,1-6.73-.2-1.4-.74-2.76-1.7-2.7-3.28.09-2,2.25-.77,3.15-1.48,2.64-2.1,4.87-4.46,8.28-5.79,2.49-1,.55-3.5-1.24-4.53-3.64-2.1-12.11-.29-14,3.41-1.33,2.61-5.66,2.53-5.19,6.39a1.14,1.14,0,0,1-1.85-1.19c.4-2.09.56-4.24,2.49-5.75,2.33-1.82.76-2.68-1.06-3.18-1.1-.31-2.37-.12-3.41-.54-6.11-2.5-6.1-2.54-8.62,3.35.12-6,1.71-7.17,7.66-7.7,5.29-.47,9.86,2.54,15.1,2.25,1.84-.1,3.91.43,5.89.44,6.34.06,8.4,2.14,6.51,8.36s1.89,9.85,5.25,12.75c2.3,2,7,2.43,11.14,0-3.42,6.11,1.67,7,4.83,7.68,4.32.9,1,2.84,1.15,4.21.35,2.93-1.24,1.74-2.75,1.29-3.27-1-6.09-2.23-7.16-5.91-.52-1.77-2.62-3.38-3.69-2C411.86,632.25,408.31,629.88,405,630Z" transform="translate(0 0)"/><path class="cls-16" d="M383,564c-.32,1-.65,2-1,3-2,.11-2,1.53-2,3l0,0-3,1c-1.65.32-2.28-.38-2-2,.86-1.45,4.31-1,3-4C378.55,559.18,381.09,563.27,383,564Z" transform="translate(0 0)"/><path class="cls-16" d="M334.73,549.2c-.64,1.65-1.19,3.49-3.08,4.11-.86.28-1.57-.63-1.34-1.51.44-1.75,1.13-3.53,3-4.16C334.19,547.35,334.67,548.25,334.73,549.2Z" transform="translate(0 0)"/><path class="cls-16" d="M337.27,554.17c-.19-3-1.09-5,.93-6.45.73-.52,1.56.36,1.95,1C341.67,551.44,339,551.94,337.27,554.17Z" transform="translate(0 0)"/><path class="cls-16" d="M380,570c1.75.17,2.09,1.38,2,2.82-.09,1.2.39,3.11-1.62,2.87s-.55-1.74-.5-2.72.09-2,.13-2.95Z" transform="translate(0 0)"/><path class="cls-24" d="M375,569l2,2c-1.57,1.48-3.37,1.59-4.25-.36C372.17,569.42,373.86,569.09,375,569Z" transform="translate(0 0)"/><path class="cls-85" d="M86.7,73.1c6.84,15.21,25,22.58,40.37,16.36,1.5-.61,3.06-1.08,4.6-1.61,2.46,1.15,2.88,3,1.8,5.34-.49,1-.76,2.4-1.58,3.08-6.22,5.21-4.93,12.63-5.77,19.37-.41,3.35-1.1,6.22-4.64,7.44-1,.34-2.09.8-2.16,1.82-.49,7.28-7,11.61-8.85,18.21-.2.71-1.2,1.26-.49,2.12s1.41.52,2.26.28c2.92-.82,5.74-2.31,9.1-1.84-.45,2.86-3.51,1.69-4.61,3.63.74,1.84,4.07-1.09,4,1.69s-2.64,4.49-4.22,6.56c-1,1.36-2.85,1.59-4.56,1.56-9.43-5.24-19.22-7.32-29.88-4.05-7.55,2.32-13.33,6.84-18,13-2.1-1.12-3.71-3-2.79-5.21,1.57-3.83.48-7.89,1.21-11.43,2-9.57,1.34-19.39,3.75-28.92,1.14-4.49,3.3-9.34,1.09-14.27a1.18,1.18,0,0,1,0-1c5.8-7.36,4-18.67,13-24.47C83,79,82.53,74,86.7,73.1Z" transform="translate(0 0)"/><path class="cls-86" d="M194,87c4.5-.9,4.05,3.29,4.94,5.41s-1.81,1.36-2.94,1.84c-1.7-1.69-4-1-5.68-.7-5.4,1-10.47.56-15.33-2a3.25,3.25,0,0,0-2.81.05c-3.91,1.22-7.68,2.6-12,.9-1.57-.61-4,.93-6.19,1.06,3.92-2,7.08-5.43,12-5.59a9.84,9.84,0,0,0,4.63-1.59c5.31-3.33,11.06-3.43,17-3C190.5,83.65,190.49,88.41,194,87Z" transform="translate(0 0)"/><path class="cls-87" d="M179.64,100.67l-4,2.69c4.74-7.42,12.34-6.55,20.25-7.55-1.9,2.74-3.14,4.43-6.14,4.83-3.48.46-5.95,6.38-4.34,9.63,1.15,2.32.6,4.13-1,5.89-1.81,2-4,3.72-6.77,3.47-2.31-.21-2.94-2.16-2.8-4.46C175.18,110.18,177.72,106,179.64,100.67Z" transform="translate(0 0)"/><path class="cls-87" d="M218.16,96.11c-1.15,4.6-3.07,9-3.17,13.87-2.67,1.46-5.1,3.32-6.2-1.85-.67-3.16-3-2.28-4.88-.46-.69.67-1.52,1.58-2.43.36-.58-.79,0-1.39.61-2.08,3.79-4.14,3.18-6.27-2.27-7.83-1.33-.38-2.65-.47-2.84-2.19,3.47.94,6.7-.87,10.1-.85A41.26,41.26,0,0,1,218.16,96.11Z" transform="translate(0 0)"/><path class="cls-88" d="M215.08,114.11c1.21,1.82.75,3.91.95,5.9-3.33-.16-6.71,2.51-10-.37-.9-.77-2-1-1-2.46.72-1,.79-1.44,2.44-.64C210.23,117.87,212.7,115.53,215.08,114.11Z" transform="translate(0 0)"/><path class="cls-16" d="M445,554a14.43,14.43,0,0,1-.74,4.81c-.39,1.29-1,3.21.88,3.83s3.13-1,3.6-2.53c.56-1.9.52-4,3.25-4.11-.3,1.11-.67,2.2-.89,3.33-1,4.85-4.64,7.1-9.07,5.51-.82-.29-1.83-1-1.35-1.7,1.64-2.39-2.25-5.6,1.23-7.58C442.86,555,443.92,554.5,445,554Z" transform="translate(0 0)"/><path class="cls-16" d="M334,470a2.65,2.65,0,0,0,3,0c1.59,2.91-.5,5.63-.74,8.4-.11,1.25-3.68,3.47-5.33,2-1.92-1.75-1.45-4.94-.13-7.33C331.46,471.8,332.89,471,334,470Z" transform="translate(0 0)"/><path class="cls-16" d="M384,555l-2,3-4.24.29c2.55-1.83-1-6.92,3.69-6.86C382.86,551.43,385.35,552.19,384,555Z" transform="translate(0 0)"/><path class="cls-89" d="M44.06,280.09c-.44-3.21,2.76-4.68,3.56-7.36.3-1,1.72-.55,2.62-.08s2,1,1.31,2.2c-1.19,2.08-1.16,4.43-1.82,6.6a3.09,3.09,0,0,1-3.35,2.39C44.24,283.55,44,281.84,44.06,280.09Z" transform="translate(0 0)"/><path class="cls-90" d="M42.94,284.41c1.59,2.93,5.19,3,7.33,5.24.34.35.38,1.62.17,1.73a3.45,3.45,0,0,1-2.29.45c-2.2-.65-4.17-1.95-6.64-1.92a2,2,0,0,1-2.18-2.66C39.75,285.74,41.32,285.2,42.94,284.41Z" transform="translate(0 0)"/><path class="cls-14" d="M41,214.6a7.71,7.71,0,0,1-4.71,5c-1.13.45-1.9-1.31-1.6-1.95a9.87,9.87,0,0,1,5.14-5.13C40.71,212.14,41,213.37,41,214.6Z" transform="translate(0 0)"/><path class="cls-91" d="M132,293.43c2.83-.85,5.22-.47,6.92,2.25.88,1.4,2.07,1.92,2.94.08.74-1.56,1.67-2.12,3.05-1.06a2.81,2.81,0,0,1,.62,4,107.42,107.42,0,0,1-7.42,9.91c-2.61,3-4.15.33-4.84-1.79-.6-1.83-.7-3.43-3.18-3.54-.75,0-2.08-1.21-1.32-2.2,2-2.64,2.22-4.41-1.28-5.92-.87-.38-.1-1.9,1.09-2A18.9,18.9,0,0,1,132,293.43Z" transform="translate(0 0)"/><path class="cls-92" d="M382,430c-.17-2.21-2.47-2.5-3.53-3.92-.89-1.19-3-2.41-2.85-3.26.87-4.24-2.93-5.32-4.48-7.89a23,23,0,0,0-11.92-10.26,7.29,7.29,0,0,1-1.33-.69c-.53-.34-.31-11.93.24-12a18.57,18.57,0,0,1,9.56,2.34,39.48,39.48,0,0,1,4,2.86c2,1.37,3.45.8,4.14-1.49.44-1.47.09-3.93,2.75-2.71,2.21,1,4.73,2.4,4,5.48-.66,2.86-1.59,5.22,2.94,5.28,1.55,0,1.81,2,.75,3.14-4.57,4.67-2.74,9.37-.35,14.14,4.21,2.24,3.7,6.57,3.41,10-.22,2.6-3.38,1.49-5.4,1Z" transform="translate(0 0)"/><path class="cls-35" d="M384,432c3.91.11,6.93-.15,3.81-5.36-.94-1.56-.18-4.05-1.82-5.63.07-5.73,1.88-11.08,3.76-16.39.76-2.14,2.23-3.74,4.83-3.59,1,.06,2.5.3,1.91,1.52-1.93,3.95,1.55,4.18,3.47,5.52-1.28.27-2.68,1-3.82.7-3.21-.82-4.51-.34-3.34,3.27.7,2.14-.81,2.59-2.62,3.18-2.71.88-4.26,2.68-2,5.59a10,10,0,0,1,1.84,6c.12,2.5,2.49,4,4.22,4.17s1.6-2.39,1.68-4c2.66,1.17,3.85,3.57,5,6-2.88.7-6.63-1.79-8.6,2.43-.36.76-1.7.65-2.17,0C388.61,433.32,385.9,433.4,384,432Z" transform="translate(0 0)"/><path class="cls-16" d="M379,444c-.34-.67-.68-1.33-1-2,.32-1.6-2.41-3.9.33-4.7s5.79-.41,8.7-.46c.18,0,.56,1.16.51,1.2-4.31,2.49-2.57,7.6-4.78,11a1.4,1.4,0,0,1-1.67.72,1.1,1.1,0,0,1-.59-1.62C381.28,446.26,380.81,444.89,379,444Z" transform="translate(0 0)"/><path class="cls-93" d="M401,433c-3-.89-3.93-3.49-5-6-1.81-1.95-.93-3.58.66-5.06s2.91-.66,4.34.41,3.77,1.83,2.6,4.46C402.63,428.86,403.18,431.51,401,433Z" transform="translate(0 0)"/><path class="cls-1" d="M76,186.49c.13-9.28,7.81-17.34,16.5-17.31,10.07,0,18.64,8.49,18.56,18.32-.07,9.6-8.1,17.66-17.46,17.55C83.78,204.93,75.84,196.56,76,186.49Z" transform="translate(0 0)"/><path class="cls-1" d="M249.26,93.84c8.9-1,17.14,9.1,16.74,17.22-.49,10-8.13,17.89-17.75,17.58-9.13-.31-16.26-8-16.23-17.43C232.06,101.33,239.61,93.72,249.26,93.84Z" transform="translate(0 0)"/><path class="cls-1" d="M514.82,679.86c-.07,8.46-7.78,16.16-16,15.95A17.66,17.66,0,0,1,481.72,678c.14-8.81,7-15.77,15.45-15.59C506.71,662.58,514.89,670.68,514.82,679.86Z" transform="translate(0 0)"/><path class="cls-1" d="M307.2,383.77c0-.33.07-.78-.11-1-4.54-4.61-2.28-8.72.91-12.76,2.7,1.81,3.93,4.81,5.51,7.41,1.11,1.82.66,4.13-1.17,5.87C310.68,384.9,309.09,385.6,307.2,383.77Z" transform="translate(0 0)"/><path class="cls-92" d="M395,391a2.15,2.15,0,0,0,2,1c.76,7.37-6.35,5.42-9.58,8.29.33-2.86,2.54-5.43,0-8.24-.52-.57,1-2.16,1.71-1.12C391.19,394.14,393,391.7,395,391Z" transform="translate(0 0)"/><path class="cls-94" d="M411,732a5.33,5.33,0,0,1-3.79,3c-2,.84-3.92.06-5.88-.09-2.57-.2-5.36-1.14-5.87,3.06-.21,1.73-1.81,1.68-3.06.58-4-3.51-4.62-10.81-1.42-15.61a6.68,6.68,0,0,0,3-3,11.45,11.45,0,0,0,4.61-5.06c2.05-4.11,6.32-5,9.89-6.78,2.24-1.11,4.46.24,6.33,1.81,1.1.92,1.47,2.55.18,2.64-2.6.19-3.08,7.78-7.15,2.06-3.54,1.92-7.41,3.8-9.07,7.56-.71,1.64-2.25,2.79-2.46,4.28C400.66,730.08,405.75,731.22,411,732Z" transform="translate(0 0)"/><path class="cls-95" d="M463,675a26.56,26.56,0,0,0-8.49,15.29A9.1,9.1,0,0,1,451,696c-1-5.84.81-11.14,2.68-17.33-.72-.87-6-1.24-1.71-5.32,1.31-1.25-.5-1.88-1.25-2.62a1.4,1.4,0,0,1-.21-2.15,1.55,1.55,0,0,1,2.25-.06c1.1,1,2.74,2,2.93,3.22C456.46,676.88,459.39,676.49,463,675Z" transform="translate(0 0)"/><path class="cls-96" d="M434,711.93c-3.75,4.71-8.6,8-13.72,11,.57-5,6.24-5.82,8-9.85C429.56,710.14,431.63,710.36,434,711.93Z" transform="translate(0 0)"/><path class="cls-97" d="M391,722.93c-3.55,6,1.41,10.45,2.26,15.9,2.33-1.06,1.5-2.18,1.15-3.19-.56-1.64,0-3,1.71-2.56,3.68.84,7.63,0,11.11,1.91-7.78,8.26-17.34,10.25-27.91,7.28-2.41-.67-2.91-.18-3.44,1.68-.78,2.33.81,5-.89,7.18-2.07-1.31-5.2-1.13-6-4.24,3.62-2.82,6.39-6.15,7.18-10.89,1.07-6.38,7.94-7,11.32-11.21C388.22,723.85,389.76,723.53,391,722.93Z" transform="translate(0 0)"/><path class="cls-98" d="M369,746.89c1.67,1.84,4.52,1.93,6,4,.2,3-1,5.62-1.94,8.32L371,761c-.21-2-1.29-1.75-2.81-1.35-1.69.44-3.76,1-4.3-1.73-1.74-2,.13-4,.05-6l1-2Z" transform="translate(0 0)"/><path class="cls-60" d="M380.84,695.7c-.2-1.42.88-1.89,1.44-2.64.94-1.23,1.29-3.34,3.51-2.85,1.3.29,1.09,1.41.81,2.41-.57,2-1.32,3.8-4,3.32C382,695.83,381.41,695.77,380.84,695.7Z" transform="translate(0 0)"/><path class="cls-17" d="M253.38,483c.19.77-.14,1.42-.87,1.4a2.21,2.21,0,0,1-2.43-2.39c0-.87.22-1.76,1.29-1.55C252.66,480.66,253,481.92,253.38,483Z" transform="translate(0 0)"/><path class="cls-1" d="M131,59.19c.13,8.23-7.23,16.45-14.88,16.62-8.91.2-16.89-7.94-17-17.39-.12-8.06,7.41-16.09,15.22-16.22C123.25,42.05,130.89,49.82,131,59.19Z" transform="translate(0 0)"/><path class="cls-61" d="M373,759.25c-.92-3.14.35-5.77,1.94-8.32-.3-2-.63-4-.88-6-.21-1.71.79-1.31,1.74-.93,1.38.54,2.79,1,4.13,1.66a6.1,6.1,0,0,1,1.4,1.3c-3.43,2.82,1,9.58-5.44,10.89Z" transform="translate(0 0)"/><path class="cls-99" d="M291.11,810a14.1,14.1,0,0,0-7.7,1.53c-2.11,1-3,1.37-3.9-1.15-.6-1.6-2-1.44-3.09-.05-4,5-4,5-9.74,7.63,1.93-8.42,8.13-12.77,15.56-16.39,4.28-2.09,4.6-7.49,6.18-11.49.79-2-.21-4.14,3.21-3.31.88.22,1.06-1,1.54-1.66,1.45-1.88,3.23-3.32,5.83-3.14.61.91,2.11,1.53,1,3-.44.49-.75,1.12-.09,1.54s1.46-.05,2.08-.55c2.06.14,3.84-.83,5.7-1.45,1-.35,2.1-2.29,3.08-.18.68,1.47-.36,2.56-1.72,3.06-3.75,1.4-5.68,4.28-6.73,7.95a2.09,2.09,0,0,0,.68,2.62c-2.37,1.58-5.83,1.24-7.48,4.28,1.3,2.52,4.07,1.13,6.25,2.22C299,808,294.94,808.78,291.11,810Z" transform="translate(0 0)"/><path class="cls-99" d="M280,821.9c-2.16.87-2.69-2.18-4.59-1.92l3.25-3C279.14,818.62,279.58,820.26,280,821.9Z" transform="translate(0 0)"/><path class="cls-61" d="M364,751.93c1.64,2-.33,4-.05,6C358.85,755.89,363.3,753.93,364,751.93Z" transform="translate(0 0)"/><path class="cls-61" d="M303.47,737.83c-.77-3.12.14-4.8,2.69-7.1C305,733.53,305.4,735.63,303.47,737.83Z" transform="translate(0 0)"/><path class="cls-76" d="M302,785.92c-.72,1.41-1.71,2.33-3.41,1.68-.6-.23-1.16-.67-.91-1.42.37-1.09,1.37-1.17,2.33-1.25A2.05,2.05,0,0,0,302,785.92Z" transform="translate(0 0)"/><path class="cls-1" d="M503.78,569.07c-9.55-.13-18.06-8.46-17.71-17.35A17.18,17.18,0,0,1,503.51,535c9.78.09,18.32,8.27,18.19,17.41C521.57,562,513.84,569.2,503.78,569.07Z" transform="translate(0 0)"/></svg>